<svg width="312" height="468" viewBox="0 0 312 468" fill="none" xmlns="http://www.w3.org/2000/svg">
<path d="M222.214 -64.0958C197.015 23.6868 38.3921 173.178 220.677 162.643C276.34 169.696 315.218 238.56 279.691 292.085C271.676 307.343 256.308 322.027 259.109 341.681C310.567 335.865 360.775 306.378 407.766 282.617C426.29 275.913 523.454 194.812 508.424 258.798C473.882 308.496 222.977 470.788 213.422 338.181C210.598 305.548 227.21 284.496 237.208 256.683C254.331 205.481 147.619 235.118 124.197 211.53C55.4887 172.01 73.8452 73.709 112.651 19.241C133.835 -7.48364 175.542 -115.302 211.602 -95.7722C220.789 -89.6365 226.93 -75.7259 222.276 -64.1047L222.214 -64.0958Z" fill="#0065B2"/>
</svg>
