<svg width="478" height="688" viewBox="0 0 478 688" fill="none" xmlns="http://www.w3.org/2000/svg">
<path d="M312.777 -63.5672C277.204 60.3544 53.2772 271.389 310.607 256.516C389.185 266.474 444.068 363.688 393.917 439.249C382.601 460.788 360.906 481.517 364.861 509.263C437.503 501.053 508.382 459.427 574.719 425.883C600.868 416.419 738.034 301.93 716.816 392.258C668.053 462.417 313.854 691.521 300.364 504.322C296.379 458.255 319.83 428.536 333.943 389.273C358.116 316.992 207.471 358.829 174.407 325.531C77.4123 269.74 103.326 130.97 158.107 54.0782C188.012 16.3514 246.89 -135.854 297.795 -108.284C310.765 -99.6228 319.434 -79.9853 312.864 -63.5799L312.777 -63.5672Z" fill="#0065B2"/>
</svg>
