<svg width="1310" height="651" viewBox="0 0 1310 651" fill="none" xmlns="http://www.w3.org/2000/svg">
<path d="M1310 792.314H0V-28H1310V792.314ZM1.69445 790.624H1308.31V-26.3058H1.69445V790.624Z" fill="#EEEEEE"/>
<path d="M1309.15 626.899H0.847656V628.593H1309.15V626.899Z" fill="#EEEEEE"/>
<path d="M1309.15 585.968H0.847656V587.662H1309.15V585.968Z" fill="#EEEEEE"/>
<path d="M1309.15 545.036H0.847656V546.731H1309.15V545.036Z" fill="#EEEEEE"/>
<path d="M1309.15 504.105H0.847656V505.8H1309.15V504.105Z" fill="#EEEEEE"/>
<path d="M1309.15 463.174H0.847656V464.868H1309.15V463.174Z" fill="#EEEEEE"/>
<path d="M1309.15 422.243H0.847656V423.937H1309.15V422.243Z" fill="#EEEEEE"/>
<path d="M1309.15 381.312H0.847656V383.006H1309.15V381.312Z" fill="#EEEEEE"/>
<path d="M1309.15 340.381H0.847656V342.075H1309.15V340.381Z" fill="#EEEEEE"/>
<path d="M1309.15 299.45H0.847656V301.144H1309.15V299.45Z" fill="#EEEEEE"/>
<path d="M1309.15 258.518H0.847656V260.212H1309.15V258.518Z" fill="#EEEEEE"/>
<path d="M1309.15 217.587H0.847656V219.281H1309.15V217.587Z" fill="#EEEEEE"/>
<path d="M1309.15 176.656H0.847656V178.35H1309.15V176.656Z" fill="#EEEEEE"/>
<path d="M1309.15 135.725H0.847656V137.419H1309.15V135.725Z" fill="#EEEEEE"/>
<path d="M1309.15 94.7936H0.847656V96.4878H1309.15V94.7936Z" fill="#EEEEEE"/>
<path d="M1309.15 53.8623H0.847656V55.5565H1309.15V53.8623Z" fill="#EEEEEE"/>
<path d="M1309.15 12.9314H0.847656V14.6255H1309.15V12.9314Z" fill="#EEEEEE"/>
<path d="M1270.36 -27.153H1268.66V791.471H1270.36V-27.153Z" fill="#EEEEEE"/>
<path d="M1230.71 -27.153H1229.02V791.471H1230.71V-27.153Z" fill="#EEEEEE"/>
<path d="M1191.07 -27.153H1189.37V791.471H1191.07V-27.153Z" fill="#EEEEEE"/>
<path d="M1151.42 -27.153H1149.72V791.471H1151.42V-27.153Z" fill="#EEEEEE"/>
<path d="M1111.77 -27.153H1110.07V791.471H1111.77V-27.153Z" fill="#EEEEEE"/>
<path d="M1072.13 -27.153H1070.43V791.471H1072.13V-27.153Z" fill="#EEEEEE"/>
<path d="M1032.48 -27.153H1030.78V791.471H1032.48V-27.153Z" fill="#EEEEEE"/>
<path d="M992.833 -27.153H991.139V791.471H992.833V-27.153Z" fill="#EEEEEE"/>
<path d="M953.187 -27.153H951.492V791.471H953.187V-27.153Z" fill="#EEEEEE"/>
<path d="M913.542 -27.153H911.848V791.471H913.542V-27.153Z" fill="#EEEEEE"/>
<path d="M873.898 -27.153H872.203V791.471H873.898V-27.153Z" fill="#EEEEEE"/>
<path d="M834.253 -27.153H832.559V791.471H834.253V-27.153Z" fill="#EEEEEE"/>
<path d="M794.607 -27.153H792.912V791.471H794.607V-27.153Z" fill="#EEEEEE"/>
<path d="M754.962 -27.153H753.268V791.471H754.962V-27.153Z" fill="#EEEEEE"/>
<path d="M715.317 -27.153H713.623V791.471H715.317V-27.153Z" fill="#EEEEEE"/>
<path d="M675.673 -27.153H673.979V791.471H675.673V-27.153Z" fill="#EEEEEE"/>
<path d="M636.023 -27.153H634.328V791.471H636.023V-27.153Z" fill="#EEEEEE"/>
<path d="M596.378 -27.153H594.684V791.471H596.378V-27.153Z" fill="#EEEEEE"/>
<path d="M556.73 -27.153H555.035V791.471H556.73V-27.153Z" fill="#EEEEEE"/>
<path d="M517.087 -27.153H515.393V791.471H517.087V-27.153Z" fill="#EEEEEE"/>
<path d="M477.443 -27.153H475.748V791.471H477.443V-27.153Z" fill="#EEEEEE"/>
<path d="M437.798 -27.153H436.104V791.471H437.798V-27.153Z" fill="#EEEEEE"/>
<path d="M398.15 -27.153H396.455V791.471H398.15V-27.153Z" fill="#EEEEEE"/>
<path d="M358.507 -27.153H356.812V791.471H358.507V-27.153Z" fill="#EEEEEE"/>
<path d="M318.859 -27.153H317.164V791.471H318.859V-27.153Z" fill="#EEEEEE"/>
<path d="M279.218 -27.153H277.523V791.471H279.218V-27.153Z" fill="#EEEEEE"/>
<path d="M239.569 -27.153H237.875V791.471H239.569V-27.153Z" fill="#EEEEEE"/>
<path d="M199.927 -27.153H198.232V791.471H199.927V-27.153Z" fill="#EEEEEE"/>
<path d="M160.278 -27.153H158.584V791.471H160.278V-27.153Z" fill="#EEEEEE"/>
<path d="M120.63 -27.153H118.936V791.471H120.63V-27.153Z" fill="#EEEEEE"/>
<path d="M80.9855 -27.153H79.291V791.471H80.9855V-27.153Z" fill="#EEEEEE"/>
<path d="M41.3429 -27.153H39.6484V791.471H41.3429V-27.153Z" fill="#EEEEEE"/>
</svg>
