<svg width="751" height="853" fill="none" xmlns="http://www.w3.org/2000/svg"><mask id="a" style="mask-type:alpha" maskUnits="userSpaceOnUse" x="125" y="17" width="541" height="713"><path d="M438.42 63.997c-82.385 136.93-381.37 398.48-125.642 338.105 72.493-3.137 88.292 89.906 10.409 178.341-19.306 24.691-48.382 50.33-55.249 78.918 73.739-21.276 158.66-77.504 236.051-124.415 29.056-14.526 206.495-159.145 151.021-60.153-74.449 82.494-506.965 385.731-447.821 190.554 13.907-47.915 48.159-83.344 77.023-127.222 51.38-80.463-111.115-10.161-130.384-39.554-72.696-42.024 6.036-192.944 88.93-283.587C286.371 169.985 402.311-.834 441.124 19.416c9.257 6.887 10.1 26.102-2.615 44.552l-.089.029z" fill="#fff"/></mask><g mask="url(#a)"><path fill="#fff" d="M103 216h465v477H103z"/></g></svg>