<svg width="406" height="374" fill="none" xmlns="http://www.w3.org/2000/svg"><mask id="a" style="mask-type:alpha" maskUnits="userSpaceOnUse" x="4" y="0" width="398" height="366"><path d="M381.708 326.868l.212.046.071-.049c13.233 1.94 20.38 11.661 18.979 19.92-1.185 3.838-4.093 6.959-8.439 9.478-4.359 2.529-10.129 4.429-16.942 5.826-13.624 2.794-31.304 3.554-49.931 3.39-16.996-.15-34.753-1.07-50.897-1.905l-4.581-.237c-17.305-.888-32.433-1.581-42.209-.949-38.024 1.131-81.744-5.776-113.852-20.695-16.055-7.461-29.166-16.907-37.225-28.314-8.045-11.388-11.072-24.753-6.936-40.132l.025-.094-.011-.096c-.367-3.018.864-6.585 3.31-10.591 2.438-3.992 6.037-8.346 10.288-12.912 5.016-5.387 10.891-11.023 16.794-16.684 4.123-3.955 8.259-7.923 12.125-11.827 4.686-4.733 8.961-9.361 12.287-13.727 3.32-4.357 5.726-8.493 6.627-12.239.908-3.778.288-7.185-2.467-9.971-2.717-2.749-7.456-4.833-14.643-6.166l-.008-.001c-7.916-1.329-15.768-2.204-23.495-3.015l-2.95-.308c-6.716-.7-13.329-1.388-19.814-2.326-14.864-2.15-29.012-5.603-42.059-13.455l-.006-.004c-13.462-7.838-20.017-16.114-21.245-24.54-1.229-8.428 2.842-17.194 11.084-26.078 16.486-17.771 49.34-35.662 87.813-51.666 38.45-15.994 82.434-30.07 121.107-40.243C263.357 7.142 296.644.89 313.813.501c8.299 2.175 13.232 4.509 15.573 6.887 1.158 1.176 1.651 2.331 1.647 3.466-.005 1.146-.516 2.36-1.548 3.645-2.073 2.583-6.107 5.278-11.542 8.007-5.418 2.72-12.165 5.443-19.598 8.108-14.867 5.33-32.434 10.409-47.523 14.74l-1.559.448c-6.936 1.991-13.298 3.817-18.557 5.427-5.625 1.722-10.024 3.207-12.514 4.39-7.934 2.966-16.021 5.927-24.182 8.915-48.94 17.92-100.535 36.813-137.691 63.755l-.575.417.586.4c7.62 5.204 17.533 6.808 27.873 7.284 4.866.224 9.846.199 14.745.175l.937-.005c5.205-.025 10.302-.032 15.085.278l.018.001h.018c36.336-.255 62.119 13.325 74.45 31.795 12.309 18.438 11.283 41.841-6.161 61.502-18.069 14.435-30.046 26.461-36.96 36.499-6.913 10.037-8.826 18.181-6.56 24.787 2.261 6.593 8.623 11.463 17.795 15.113 9.186 3.656 21.299 6.13 35.25 7.862 24.28 3.013 54.231 3.786 84.208 4.56 4.471.116 8.943.231 13.397.354 34.339.947 67.587 2.338 91.283 7.557z" fill="#FFC93A" stroke="#000"/></mask><g filter="url(#filter0_d_4329_11459)" mask="url(#a)"><path fill="#fff" d="M4-5h398v386H4z"/><path stroke="#000" d="M4.5-4.5h397v385H4.5z"/></g><defs><filter id="filter0_d_4329_11459" x="0" y="-5" width="406" height="394" filterUnits="userSpaceOnUse" color-interpolation-filters="sRGB"><feFlood flood-opacity="0" result="BackgroundImageFix"/><feColorMatrix in="SourceAlpha" values="0 0 0 0 0 0 0 0 0 0 0 0 0 0 0 0 0 0 127 0" result="hardAlpha"/><feOffset dy="4"/><feGaussianBlur stdDeviation="2"/><feComposite in2="hardAlpha" operator="out"/><feColorMatrix values="0 0 0 0 0 0 0 0 0 0 0 0 0 0 0 0 0 0 0.25 0"/><feBlend in2="BackgroundImageFix" result="effect1_dropShadow_4329_11459"/><feBlend in="SourceGraphic" in2="effect1_dropShadow_4329_11459" result="shape"/></filter></defs></svg>