<svg width="730" height="482" fill="none" xmlns="http://www.w3.org/2000/svg"><path d="M726.123 384.818c-166.029-7.31-576.903 71.933-358.598-69.173 50.499-46.278-14.847-98.463-138.393-86.953-32.882 1.609-72.997 9.22-100.826.895 66.098-38.95 168.064-69.557 257.459-99.395C428.251 116.011 927.741 11.46 810.414 3.488 356.803 36.71-114.853 218.099 83.254 266.862c48.229 12.373 99.742 5.755 154.574 6.477 99.525 2.343-65.207 77.658-54.007 103.537-13.843 66.697 161.166 82.695 289.825 68.879 65.5-8.476 421.827-25.71 430.999-60.338.512-9.183-65.856-6.376-178.522-.599z" fill="#FFC93A"/></svg>