<svg width="1440" height="1640" viewBox="0 0 1440 1640" fill="none" xmlns="http://www.w3.org/2000/svg">
<path d="M584 820.314H-726V0H584V820.314ZM-724.306 818.624H582.305V1.69415H-724.306V818.624Z" fill="#EEEEEE"/>
<path d="M583.153 777.692H-725.152V779.387H583.153V777.692Z" fill="#EEEEEE"/>
<path d="M583.153 736.762H-725.152V738.456H583.153V736.762Z" fill="#EEEEEE"/>
<path d="M583.153 695.83H-725.152V697.524H583.153V695.83Z" fill="#EEEEEE"/>
<path d="M583.153 654.898H-725.152V656.593H583.153V654.898Z" fill="#EEEEEE"/>
<path d="M583.153 613.968H-725.152V615.662H583.153V613.968Z" fill="#EEEEEE"/>
<path d="M583.153 573.036H-725.152V574.73H583.153V573.036Z" fill="#EEEEEE"/>
<path d="M583.153 532.105H-725.152V533.8H583.153V532.105Z" fill="#EEEEEE"/>
<path d="M583.153 491.174H-725.152V492.868H583.153V491.174Z" fill="#EEEEEE"/>
<path d="M583.153 450.243H-725.152V451.937H583.153V450.243Z" fill="#EEEEEE"/>
<path d="M583.153 409.312H-725.152V411.006H583.153V409.312Z" fill="#EEEEEE"/>
<path d="M583.153 368.381H-725.152V370.075H583.153V368.381Z" fill="#EEEEEE"/>
<path d="M583.153 327.449H-725.152V329.143H583.153V327.449Z" fill="#EEEEEE"/>
<path d="M583.153 286.519H-725.152V288.213H583.153V286.519Z" fill="#EEEEEE"/>
<path d="M583.153 245.587H-725.152V247.281H583.153V245.587Z" fill="#EEEEEE"/>
<path d="M583.153 204.656H-725.152V206.35H583.153V204.656Z" fill="#EEEEEE"/>
<path d="M583.153 163.725H-725.152V165.419H583.153V163.725Z" fill="#EEEEEE"/>
<path d="M583.153 122.794H-725.152V124.488H583.153V122.794Z" fill="#EEEEEE"/>
<path d="M583.153 81.8623H-725.152V83.5565H583.153V81.8623Z" fill="#EEEEEE"/>
<path d="M583.153 40.9316H-725.152V42.6258H583.153V40.9316Z" fill="#EEEEEE"/>
<path d="M544.357 0.84668H542.662V819.47H544.357V0.84668Z" fill="#EEEEEE"/>
<path d="M504.71 0.84668H503.016V819.47H504.71V0.84668Z" fill="#EEEEEE"/>
<path d="M465.066 0.84668H463.371V819.47H465.066V0.84668Z" fill="#EEEEEE"/>
<path d="M425.417 0.84668H423.723V819.47H425.417V0.84668Z" fill="#EEEEEE"/>
<path d="M385.769 0.84668H384.074V819.47H385.769V0.84668Z" fill="#EEEEEE"/>
<path d="M346.126 0.84668H344.432V819.47H346.126V0.84668Z" fill="#EEEEEE"/>
<path d="M306.478 0.84668H304.783V819.47H306.478V0.84668Z" fill="#EEEEEE"/>
<path d="M266.833 0.84668H265.139V819.47H266.833V0.84668Z" fill="#EEEEEE"/>
<path d="M227.187 0.84668H225.492V819.47H227.187V0.84668Z" fill="#EEEEEE"/>
<path d="M187.542 0.84668H185.848V819.47H187.542V0.84668Z" fill="#EEEEEE"/>
<path d="M147.898 0.84668H146.203V819.47H147.898V0.84668Z" fill="#EEEEEE"/>
<path d="M108.253 0.84668H106.559V819.47H108.253V0.84668Z" fill="#EEEEEE"/>
<path d="M68.6065 0.84668H66.9121V819.47H68.6065V0.84668Z" fill="#EEEEEE"/>
<path d="M28.962 0.84668H27.2676V819.47H28.962V0.84668Z" fill="#EEEEEE"/>
<path d="M1892 820.314H582V0H1892V820.314ZM583.694 818.624H1890.31V1.69415H583.694V818.624Z" fill="#EEEEEE"/>
<path d="M1891.15 777.692H582.848V779.387H1891.15V777.692Z" fill="#EEEEEE"/>
<path d="M1891.15 736.762H582.848V738.456H1891.15V736.762Z" fill="#EEEEEE"/>
<path d="M1891.15 695.83H582.848V697.524H1891.15V695.83Z" fill="#EEEEEE"/>
<path d="M1891.15 654.898H582.848V656.593H1891.15V654.898Z" fill="#EEEEEE"/>
<path d="M1891.15 613.968H582.848V615.662H1891.15V613.968Z" fill="#EEEEEE"/>
<path d="M1891.15 573.036H582.848V574.73H1891.15V573.036Z" fill="#EEEEEE"/>
<path d="M1891.15 532.105H582.848V533.8H1891.15V532.105Z" fill="#EEEEEE"/>
<path d="M1891.15 491.174H582.848V492.868H1891.15V491.174Z" fill="#EEEEEE"/>
<path d="M1891.15 450.243H582.848V451.937H1891.15V450.243Z" fill="#EEEEEE"/>
<path d="M1891.15 409.312H582.848V411.006H1891.15V409.312Z" fill="#EEEEEE"/>
<path d="M1891.15 368.381H582.848V370.075H1891.15V368.381Z" fill="#EEEEEE"/>
<path d="M1891.15 327.449H582.848V329.143H1891.15V327.449Z" fill="#EEEEEE"/>
<path d="M1891.15 286.519H582.848V288.213H1891.15V286.519Z" fill="#EEEEEE"/>
<path d="M1891.15 245.587H582.848V247.281H1891.15V245.587Z" fill="#EEEEEE"/>
<path d="M1891.15 204.656H582.848V206.35H1891.15V204.656Z" fill="#EEEEEE"/>
<path d="M1891.15 163.725H582.848V165.419H1891.15V163.725Z" fill="#EEEEEE"/>
<path d="M1891.15 122.794H582.848V124.488H1891.15V122.794Z" fill="#EEEEEE"/>
<path d="M1891.15 81.8623H582.848V83.5565H1891.15V81.8623Z" fill="#EEEEEE"/>
<path d="M1891.15 40.9316H582.848V42.6258H1891.15V40.9316Z" fill="#EEEEEE"/>
<path d="M1416.25 0.84668H1414.56V819.47H1416.25V0.84668Z" fill="#EEEEEE"/>
<path d="M1376.61 0.84668H1374.91V819.47H1376.61V0.84668Z" fill="#EEEEEE"/>
<path d="M1336.96 0.84668H1335.27V819.47H1336.96V0.84668Z" fill="#EEEEEE"/>
<path d="M1297.32 0.84668H1295.62V819.47H1297.32V0.84668Z" fill="#EEEEEE"/>
<path d="M1257.67 0.84668H1255.98V819.47H1257.67V0.84668Z" fill="#EEEEEE"/>
<path d="M1218.02 0.84668H1216.33V819.47H1218.02V0.84668Z" fill="#EEEEEE"/>
<path d="M1178.38 0.84668H1176.68V819.47H1178.38V0.84668Z" fill="#EEEEEE"/>
<path d="M1138.73 0.84668H1137.04V819.47H1138.73V0.84668Z" fill="#EEEEEE"/>
<path d="M1099.09 0.84668H1097.39V819.47H1099.09V0.84668Z" fill="#EEEEEE"/>
<path d="M1059.44 0.84668H1057.75V819.47H1059.44V0.84668Z" fill="#EEEEEE"/>
<path d="M1019.8 0.84668H1018.1V819.47H1019.8V0.84668Z" fill="#EEEEEE"/>
<path d="M980.15 0.84668H978.455V819.47H980.15V0.84668Z" fill="#EEEEEE"/>
<path d="M940.507 0.84668H938.812V819.47H940.507V0.84668Z" fill="#EEEEEE"/>
<path d="M900.859 0.84668H899.164V819.47H900.859V0.84668Z" fill="#EEEEEE"/>
<path d="M861.218 0.84668H859.523V819.47H861.218V0.84668Z" fill="#EEEEEE"/>
<path d="M821.569 0.84668H819.875V819.47H821.569V0.84668Z" fill="#EEEEEE"/>
<path d="M781.927 0.84668H780.232V819.47H781.927V0.84668Z" fill="#EEEEEE"/>
<path d="M742.278 0.84668H740.584V819.47H742.278V0.84668Z" fill="#EEEEEE"/>
<path d="M702.63 0.84668H700.936V819.47H702.63V0.84668Z" fill="#EEEEEE"/>
<path d="M662.985 0.84668H661.291V819.47H662.985V0.84668Z" fill="#EEEEEE"/>
<path d="M623.343 0.84668H621.648V819.47H623.343V0.84668Z" fill="#EEEEEE"/>
<path d="M624 1639.31H-686V819H624V1639.31ZM-684.306 1637.62H622.305V820.694H-684.306V1637.62Z" fill="#EEEEEE"/>
<path d="M623.153 1596.69H-685.152V1598.39H623.153V1596.69Z" fill="#EEEEEE"/>
<path d="M623.153 1555.76H-685.152V1557.46H623.153V1555.76Z" fill="#EEEEEE"/>
<path d="M623.153 1514.83H-685.152V1516.52H623.153V1514.83Z" fill="#EEEEEE"/>
<path d="M623.153 1473.9H-685.152V1475.59H623.153V1473.9Z" fill="#EEEEEE"/>
<path d="M623.153 1432.97H-685.152V1434.66H623.153V1432.97Z" fill="#EEEEEE"/>
<path d="M623.153 1392.04H-685.152V1393.73H623.153V1392.04Z" fill="#EEEEEE"/>
<path d="M623.153 1351.11H-685.152V1352.8H623.153V1351.11Z" fill="#EEEEEE"/>
<path d="M623.153 1310.17H-685.152V1311.87H623.153V1310.17Z" fill="#EEEEEE"/>
<path d="M623.153 1269.24H-685.152V1270.94H623.153V1269.24Z" fill="#EEEEEE"/>
<path d="M623.153 1228.31H-685.152V1230.01H623.153V1228.31Z" fill="#EEEEEE"/>
<path d="M623.153 1187.38H-685.152V1189.08H623.153V1187.38Z" fill="#EEEEEE"/>
<path d="M623.153 1146.45H-685.152V1148.14H623.153V1146.45Z" fill="#EEEEEE"/>
<path d="M623.153 1105.52H-685.152V1107.21H623.153V1105.52Z" fill="#EEEEEE"/>
<path d="M623.153 1064.59H-685.152V1066.28H623.153V1064.59Z" fill="#EEEEEE"/>
<path d="M623.153 1023.66H-685.152V1025.35H623.153V1023.66Z" fill="#EEEEEE"/>
<path d="M623.153 982.725H-685.152V984.419H623.153V982.725Z" fill="#EEEEEE"/>
<path d="M623.153 941.794H-685.152V943.488H623.153V941.794Z" fill="#EEEEEE"/>
<path d="M623.153 900.862H-685.152V902.556H623.153V900.862Z" fill="#EEEEEE"/>
<path d="M623.153 859.932H-685.152V861.626H623.153V859.932Z" fill="#EEEEEE"/>
<path d="M584.357 819.847H582.662V1638.47H584.357V819.847Z" fill="#EEEEEE"/>
<path d="M544.71 819.847H543.016V1638.47H544.71V819.847Z" fill="#EEEEEE"/>
<path d="M505.066 819.847H503.371V1638.47H505.066V819.847Z" fill="#EEEEEE"/>
<path d="M465.417 819.847H463.723V1638.47H465.417V819.847Z" fill="#EEEEEE"/>
<path d="M425.769 819.847H424.074V1638.47H425.769V819.847Z" fill="#EEEEEE"/>
<path d="M386.126 819.847H384.432V1638.47H386.126V819.847Z" fill="#EEEEEE"/>
<path d="M346.478 819.847H344.783V1638.47H346.478V819.847Z" fill="#EEEEEE"/>
<path d="M306.833 819.847H305.139V1638.47H306.833V819.847Z" fill="#EEEEEE"/>
<path d="M267.187 819.847H265.492V1638.47H267.187V819.847Z" fill="#EEEEEE"/>
<path d="M227.542 819.847H225.848V1638.47H227.542V819.847Z" fill="#EEEEEE"/>
<path d="M187.898 819.847H186.203V1638.47H187.898V819.847Z" fill="#EEEEEE"/>
<path d="M148.253 819.847H146.559V1638.47H148.253V819.847Z" fill="#EEEEEE"/>
<path d="M108.607 819.847H106.912V1638.47H108.607V819.847Z" fill="#EEEEEE"/>
<path d="M68.962 819.847H67.2676V1638.47H68.962V819.847Z" fill="#EEEEEE"/>
<path d="M29.3175 819.847H27.623V1638.47H29.3175V819.847Z" fill="#EEEEEE"/>
<path d="M1932 1639.31H622V819H1932V1639.31ZM623.694 1637.62H1930.31V820.694H623.694V1637.62Z" fill="#EEEEEE"/>
<path d="M1931.15 1596.69H622.848V1598.39H1931.15V1596.69Z" fill="#EEEEEE"/>
<path d="M1931.15 1555.76H622.848V1557.46H1931.15V1555.76Z" fill="#EEEEEE"/>
<path d="M1931.15 1514.83H622.848V1516.52H1931.15V1514.83Z" fill="#EEEEEE"/>
<path d="M1931.15 1473.9H622.848V1475.59H1931.15V1473.9Z" fill="#EEEEEE"/>
<path d="M1931.15 1432.97H622.848V1434.66H1931.15V1432.97Z" fill="#EEEEEE"/>
<path d="M1931.15 1392.04H622.848V1393.73H1931.15V1392.04Z" fill="#EEEEEE"/>
<path d="M1931.15 1351.11H622.848V1352.8H1931.15V1351.11Z" fill="#EEEEEE"/>
<path d="M1931.15 1310.17H622.848V1311.87H1931.15V1310.17Z" fill="#EEEEEE"/>
<path d="M1931.15 1269.24H622.848V1270.94H1931.15V1269.24Z" fill="#EEEEEE"/>
<path d="M1931.15 1228.31H622.848V1230.01H1931.15V1228.31Z" fill="#EEEEEE"/>
<path d="M1931.15 1187.38H622.848V1189.08H1931.15V1187.38Z" fill="#EEEEEE"/>
<path d="M1931.15 1146.45H622.848V1148.14H1931.15V1146.45Z" fill="#EEEEEE"/>
<path d="M1931.15 1105.52H622.848V1107.21H1931.15V1105.52Z" fill="#EEEEEE"/>
<path d="M1931.15 1064.59H622.848V1066.28H1931.15V1064.59Z" fill="#EEEEEE"/>
<path d="M1931.15 1023.66H622.848V1025.35H1931.15V1023.66Z" fill="#EEEEEE"/>
<path d="M1931.15 982.725H622.848V984.419H1931.15V982.725Z" fill="#EEEEEE"/>
<path d="M1931.15 941.794H622.848V943.488H1931.15V941.794Z" fill="#EEEEEE"/>
<path d="M1931.15 900.862H622.848V902.556H1931.15V900.862Z" fill="#EEEEEE"/>
<path d="M1931.15 859.932H622.848V861.626H1931.15V859.932Z" fill="#EEEEEE"/>
<path d="M1416.61 819.847H1414.91V1638.47H1416.61V819.847Z" fill="#EEEEEE"/>
<path d="M1376.96 819.847H1375.27V1638.47H1376.96V819.847Z" fill="#EEEEEE"/>
<path d="M1337.32 819.847H1335.62V1638.47H1337.32V819.847Z" fill="#EEEEEE"/>
<path d="M1297.67 819.847H1295.98V1638.47H1297.67V819.847Z" fill="#EEEEEE"/>
<path d="M1258.02 819.847H1256.33V1638.47H1258.02V819.847Z" fill="#EEEEEE"/>
<path d="M1218.38 819.847H1216.68V1638.47H1218.38V819.847Z" fill="#EEEEEE"/>
<path d="M1178.73 819.847H1177.04V1638.47H1178.73V819.847Z" fill="#EEEEEE"/>
<path d="M1139.09 819.847H1137.39V1638.47H1139.09V819.847Z" fill="#EEEEEE"/>
<path d="M1099.44 819.847H1097.75V1638.47H1099.44V819.847Z" fill="#EEEEEE"/>
<path d="M1059.8 819.847H1058.1V1638.47H1059.8V819.847Z" fill="#EEEEEE"/>
<path d="M1020.15 819.847H1018.46V1638.47H1020.15V819.847Z" fill="#EEEEEE"/>
<path d="M980.507 819.847H978.812V1638.47H980.507V819.847Z" fill="#EEEEEE"/>
<path d="M940.859 819.847H939.164V1638.47H940.859V819.847Z" fill="#EEEEEE"/>
<path d="M901.218 819.847H899.523V1638.47H901.218V819.847Z" fill="#EEEEEE"/>
<path d="M861.569 819.847H859.875V1638.47H861.569V819.847Z" fill="#EEEEEE"/>
<path d="M821.927 819.847H820.232V1638.47H821.927V819.847Z" fill="#EEEEEE"/>
<path d="M782.278 819.847H780.584V1638.47H782.278V819.847Z" fill="#EEEEEE"/>
<path d="M742.63 819.847H740.936V1638.47H742.63V819.847Z" fill="#EEEEEE"/>
<path d="M702.985 819.847H701.291V1638.47H702.985V819.847Z" fill="#EEEEEE"/>
<path d="M663.343 819.847H661.648V1638.47H663.343V819.847Z" fill="#EEEEEE"/>
</svg>
