<svg width="1440" height="1640" fill="none" xmlns="http://www.w3.org/2000/svg"><path d="M584 820.314H-726V0H584v820.314zm-1308.306-1.69H582.305V1.694H-724.306v816.93z" fill="#EEE"/><path d="M583.153 777.692H-725.152v1.695H583.153v-1.695zm0-40.93H-725.152v1.694H583.153v-1.694zm0-40.932H-725.152v1.694H583.153v-1.694zm0-40.932H-725.152v1.695H583.153v-1.695zm0-40.93H-725.152v1.694H583.153v-1.694zm0-40.932H-725.152v1.694H583.153v-1.694zm0-40.931H-725.152v1.695H583.153v-1.695zm0-40.931H-725.152v1.694H583.153v-1.694zm0-40.931H-725.152v1.694H583.153v-1.694zm0-40.931H-725.152v1.694H583.153v-1.694zm0-40.931H-725.152v1.694H583.153v-1.694zm0-40.932H-725.152v1.694H583.153v-1.694zm0-40.93H-725.152v1.694H583.153v-1.694zm0-40.932H-725.152v1.694H583.153v-1.694zm0-40.931H-725.152v1.694H583.153v-1.694zm0-40.931H-725.152v1.694H583.153v-1.694zm0-40.931H-725.152v1.694H583.153v-1.694zm0-40.932H-725.152v1.695H583.153v-1.695zm0-40.93H-725.152v1.694H583.153v-1.694z" fill="#EEE"/><path d="M544.357.847h-1.695V819.47h1.695V.847zm-39.647 0h-1.694V819.47h1.694V.847zm-39.644 0h-1.695V819.47h1.695V.847zm-39.649 0h-1.694V819.47h1.694V.847zm-39.648 0h-1.695V819.47h1.695V.847zm-39.643 0h-1.694V819.47h1.694V.847zm-39.648 0h-1.695V819.47h1.695V.847zm-39.645 0h-1.694V819.47h1.694V.847zm-39.646 0h-1.695V819.47h1.695V.847zm-39.645 0h-1.694V819.47h1.694V.847zm-39.644 0h-1.695V819.47h1.695V.847zm-39.645 0h-1.694V819.47h1.694V.847zm-39.647 0h-1.694V819.47h1.694V.847zm-39.644 0h-1.694V819.47h1.694V.847zM1892 820.314H582V0h1310v820.314zm-1308.306-1.69H1890.31V1.694H583.694v816.93z" fill="#EEE"/><path d="M1891.15 777.692H582.848v1.695H1891.15v-1.695zm0-40.93H582.848v1.694H1891.15v-1.694zm0-40.932H582.848v1.694H1891.15v-1.694zm0-40.932H582.848v1.695H1891.15v-1.695zm0-40.93H582.848v1.694H1891.15v-1.694zm0-40.932H582.848v1.694H1891.15v-1.694zm0-40.931H582.848v1.695H1891.15v-1.695zm0-40.931H582.848v1.694H1891.15v-1.694zm0-40.931H582.848v1.694H1891.15v-1.694zm0-40.931H582.848v1.694H1891.15v-1.694zm0-40.931H582.848v1.694H1891.15v-1.694zm0-40.932H582.848v1.694H1891.15v-1.694zm0-40.93H582.848v1.694H1891.15v-1.694zm0-40.932H582.848v1.694H1891.15v-1.694zm0-40.931H582.848v1.694H1891.15v-1.694zm0-40.931H582.848v1.694H1891.15v-1.694zm0-40.931H582.848v1.694H1891.15v-1.694zm0-40.932H582.848v1.695H1891.15v-1.695zm0-40.93H582.848v1.694H1891.15v-1.694z" fill="#EEE"/><path d="M1416.25.847h-1.69V819.47h1.69V.847zm-39.64 0h-1.7V819.47h1.7V.847zm-39.65 0h-1.69V819.47h1.69V.847zm-39.64 0h-1.7V819.47h1.7V.847zm-39.65 0h-1.69V819.47h1.69V.847zm-39.65 0h-1.69V819.47h1.69V.847zm-39.64 0h-1.7V819.47h1.7V.847zm-39.65 0h-1.69V819.47h1.69V.847zm-39.64 0h-1.7V819.47h1.7V.847zm-39.65 0h-1.69V819.47h1.69V.847zm-39.64 0h-1.7V819.47h1.7V.847zm-39.65 0h-1.695V819.47h1.695V.847zm-39.643 0h-1.695V819.47h1.695V.847zm-39.648 0h-1.695V819.47h1.695V.847zm-39.641 0h-1.695V819.47h1.695V.847zm-39.649 0h-1.694V819.47h1.694V.847zm-39.642 0h-1.695V819.47h1.695V.847zm-39.649 0h-1.694V819.47h1.694V.847zm-39.648 0h-1.694V819.47h1.694V.847zm-39.645 0h-1.694V819.47h1.694V.847zm-39.642 0h-1.695V819.47h1.695V.847z" fill="#EEE"/><path d="M624 1639.31H-686V819H624v820.31zm-1308.306-1.69H622.305V820.694H-684.306v816.926z" fill="#EEE"/><path d="M623.153 1596.69H-685.152v1.7H623.153v-1.7zm0-40.93H-685.152v1.7H623.153v-1.7zm0-40.93H-685.152v1.69H623.153v-1.69zm0-40.93H-685.152v1.69H623.153v-1.69zm0-40.93H-685.152v1.69H623.153v-1.69zm0-40.93H-685.152v1.69H623.153v-1.69zm0-40.93H-685.152v1.69H623.153v-1.69zm0-40.94H-685.152v1.7H623.153v-1.7zm0-40.93H-685.152v1.7H623.153v-1.7zm0-40.93H-685.152v1.7H623.153v-1.7zm0-40.93H-685.152v1.7H623.153v-1.7zm0-40.93H-685.152v1.69H623.153v-1.69zm0-40.93H-685.152v1.69H623.153v-1.69zm0-40.93H-685.152v1.69H623.153v-1.69zm0-40.93H-685.152v1.69H623.153v-1.69zm0-40.935H-685.152v1.694H623.153v-1.694zm0-40.931H-685.152v1.694H623.153v-1.694zm0-40.932H-685.152v1.694H623.153v-1.694zm0-40.93H-685.152v1.694H623.153v-1.694z" fill="#EEE"/><path d="M584.357 819.847h-1.695v818.623h1.695V819.847zm-39.647 0h-1.694v818.623h1.694V819.847zm-39.644 0h-1.695v818.623h1.695V819.847zm-39.649 0h-1.694v818.623h1.694V819.847zm-39.648 0h-1.695v818.623h1.695V819.847zm-39.643 0h-1.694v818.623h1.694V819.847zm-39.648 0h-1.695v818.623h1.695V819.847zm-39.645 0h-1.694v818.623h1.694V819.847zm-39.646 0h-1.695v818.623h1.695V819.847zm-39.645 0h-1.694v818.623h1.694V819.847zm-39.644 0h-1.695v818.623h1.695V819.847zm-39.645 0h-1.694v818.623h1.694V819.847zm-39.646 0h-1.695v818.623h1.695V819.847zm-39.645 0h-1.694v818.623h1.694V819.847zm-39.645 0h-1.694v818.623h1.694V819.847zM1932 1639.31H622V819h1310v820.31zm-1308.306-1.69H1930.31V820.694H623.694v816.926z" fill="#EEE"/><path d="M1931.15 1596.69H622.848v1.7H1931.15v-1.7zm0-40.93H622.848v1.7H1931.15v-1.7zm0-40.93H622.848v1.69H1931.15v-1.69zm0-40.93H622.848v1.69H1931.15v-1.69zm0-40.93H622.848v1.69H1931.15v-1.69zm0-40.93H622.848v1.69H1931.15v-1.69zm0-40.93H622.848v1.69H1931.15v-1.69zm0-40.94H622.848v1.7H1931.15v-1.7zm0-40.93H622.848v1.7H1931.15v-1.7zm0-40.93H622.848v1.7H1931.15v-1.7zm0-40.93H622.848v1.7H1931.15v-1.7zm0-40.93H622.848v1.69H1931.15v-1.69zm0-40.93H622.848v1.69H1931.15v-1.69zm0-40.93H622.848v1.69H1931.15v-1.69zm0-40.93H622.848v1.69H1931.15v-1.69zm0-40.935H622.848v1.694H1931.15v-1.694zm0-40.931H622.848v1.694H1931.15v-1.694zm0-40.932H622.848v1.694H1931.15v-1.694zm0-40.93H622.848v1.694H1931.15v-1.694z" fill="#EEE"/><path d="M1416.61 819.847h-1.7v818.623h1.7V819.847zm-39.65 0h-1.69v818.623h1.69V819.847zm-39.64 0h-1.7v818.623h1.7V819.847zm-39.65 0h-1.69v818.623h1.69V819.847zm-39.65 0h-1.69v818.623h1.69V819.847zm-39.64 0h-1.7v818.623h1.7V819.847zm-39.65 0h-1.69v818.623h1.69V819.847zm-39.64 0h-1.7v818.623h1.7V819.847zm-39.65 0h-1.69v818.623h1.69V819.847zm-39.64 0h-1.7v818.623h1.7V819.847zm-39.65 0h-1.69v818.623h1.69V819.847zm-39.643 0h-1.695v818.623h1.695V819.847zm-39.648 0h-1.695v818.623h1.695V819.847zm-39.641 0h-1.695v818.623h1.695V819.847zm-39.649 0h-1.694v818.623h1.694V819.847zm-39.642 0h-1.695v818.623h1.695V819.847zm-39.649 0h-1.694v818.623h1.694V819.847zm-39.648 0h-1.694v818.623h1.694V819.847zm-39.645 0h-1.694v818.623h1.694V819.847zm-39.642 0h-1.695v818.623h1.695V819.847z" fill="#EEE"/></svg>