<svg width="201" height="68" fill="none" xmlns="http://www.w3.org/2000/svg"><path fill-rule="evenodd" clip-rule="evenodd" d="M4.204 12.719h85.387a29.993 29.993 0 00-2.686 3.107H7.351c-2.237 0-4.067 1.251-4.067 2.78v31.51c0 1.53 1.83 2.78 4.067 2.78h80.563a30.071 30.071 0 003.014 3.108H4.204C1.892 56.004 0 54.544 0 52.758V15.965c0-1.786 1.892-3.246 4.204-3.246zm127.781 0h64.485c2.313 0 4.205 1.46 4.205 3.246v36.793c0 1.785-1.892 3.246-4.205 3.246h-65.823c1.078-.962 2.086-2 3.014-3.107h59.663c2.237 0 4.066-1.251 4.066-2.78v-31.51c0-1.53-1.829-2.781-4.066-2.781H134.67a29.904 29.904 0 00-2.685-3.107z" fill="#fff"/><path fill-rule="evenodd" clip-rule="evenodd" d="M110.791 0c12.047 0 22.619 6.321 28.585 15.826h-4.703C129.228 8.573 120.557 3.88 110.791 3.88c-9.766 0-18.437 4.693-23.883 11.946h-4.703C88.171 6.321 98.743 0 110.791 0zm27.748 52.897c-6.087 8.794-16.245 14.557-27.748 14.557-11.504 0-21.662-5.763-27.75-14.557h4.876c5.475 6.526 13.69 10.677 22.874 10.677 9.183 0 17.398-4.151 22.873-10.677h4.875z" fill="#fff"/><path d="M159.868 19.805c-8.071 0-12.614 5.82-12.614 13.628 0 7.734 4.693 13.559 12.69 13.559 8.184 0 12.576-5.713 12.576-13.56 0-7.92-4.392-13.627-12.652-13.627zm-.037 3.078c6.082 0 8.71 5.219 8.71 10.625 0 6.195-3.529 10.512-8.635 10.512s-8.673-4.355-8.673-10.662c0-6.27 3.53-10.475 8.598-10.475zm17.978-2.627v26.206h3.754V35.986h2.853c5.707 0 9.987-2.065 9.987-7.96 0-4.992-3.079-7.77-10.25-7.77h-6.344zm3.754 3.192h1.952c3.154 0 6.946.525 6.946 4.655 0 4.204-3.717 4.655-6.495 4.655h-2.403v-9.31zm-47.636-.376c2.703 0 4.393.864 4.393 3.567 0 3.529-3.229 4.693-5.932 4.693h-.976v3.04h1.163c3.83 0 6.345 1.127 6.345 4.618 0 2.816-2.177 4.618-5.519 4.618-1.877 0-4.58-.75-5.819-1.352l-.375 3.492c1.652.638 4.28 1.095 6.12 1.095 4.805 0 9.573-2.334 9.573-7.74 0-3.642-2.178-5.82-5.669-6.532v-.076c3.003-.563 4.918-2.853 4.918-6.307 0-4.317-3.454-6.27-8.072-6.27-1.651 0-4.467.526-5.931 1.052l.487 3.304c1.502-.639 3.942-1.202 5.294-1.202zm-53.048 23.39h3.754V23.56h11.225v-3.304h-14.98v26.206zm-3.464-26.206h-4.167l-7.922 15.506h-.112l-7.696-15.506h-4.393l10.1 19.372-.339.752c-.6 1.351-1.614 2.928-3.68 2.928-.562 0-1.463-.15-1.914-.376l-.225 3.38c.563.15 1.502.381 2.703.381 4.092 0 5.631-3.385 6.795-5.6l10.85-20.837zm-42.231 0v26.206h3.754V35.986h2.853c5.707 0 9.987-2.065 9.987-7.96 0-4.992-3.08-7.77-10.25-7.77h-6.344zm3.754 3.192h1.952c3.154 0 6.946.525 6.946 4.655 0 4.204-3.717 4.655-6.495 4.655h-2.403v-9.31zm-13.444-3.192l-11.3 12.051v-12.05h-3.755V46.46h3.754V33.135l11.94 13.328h5.443L18.51 32.608l12.014-12.352h-5.031z" fill="#fff"/><path fill-rule="evenodd" clip-rule="evenodd" d="M110.794 18.56c8.375 0 15.168 6.792 15.168 15.168 0 8.375-6.793 15.168-15.168 15.168-8.376 0-15.169-6.793-15.169-15.169 0-8.375 6.793-15.168 15.169-15.168zm-.001 3.272c6.568 0 11.895 5.327 11.895 11.895s-5.327 11.895-11.895 11.895c-6.569 0-11.895-5.327-11.895-11.895s5.326-11.895 11.895-11.895z" fill="#fff"/><path fill-rule="evenodd" clip-rule="evenodd" d="M108.373 31.988a2.977 2.977 0 110 5.955 2.977 2.977 0 010-5.955z" fill="#fff"/></svg>