<svg width="25" height="25" fill="none" xmlns="http://www.w3.org/2000/svg"><g clip-path="url(#clip0_3920_14855)"><path d="M12.5 25C19.404 25 25 19.404 25 12.5S19.404 0 12.5 0 0 5.596 0 12.5 5.596 25 12.5 25z" fill="#fff"/><path fill-rule="evenodd" clip-rule="evenodd" d="M5.658 12.368c3.644-1.588 6.074-2.634 7.29-3.14 3.47-1.444 4.192-1.695 4.662-1.703.104-.002.335.024.485.145a.527.527 0 01.178.339c.016.097.037.319.02.492-.188 1.976-1.002 6.773-1.416 8.987-.175.936-.52 1.25-.854 1.281-.726.067-1.277-.48-1.98-.94-1.1-.721-1.722-1.17-2.79-1.874-1.234-.813-.434-1.26.27-1.99.184-.192 3.382-3.101 3.444-3.365.008-.033.015-.156-.058-.221-.073-.065-.181-.043-.26-.025-.11.025-1.867 1.187-5.272 3.485-.499.342-.95.51-1.355.5-.447-.01-1.305-.252-1.943-.46-.783-.254-1.405-.388-1.351-.82.028-.225.338-.456.93-.691z" fill="#009BF0"/></g><defs><clipPath id="clip0_3920_14855"><path fill="#fff" d="M0 0h25v25H0z"/></clipPath></defs></svg>