<svg width="25" height="25" fill="none" xmlns="http://www.w3.org/2000/svg"><g clip-path="url(#clip0_3920_14854)"><path d="M0 12C0 6.343 0 3.515 1.757 1.757 3.515 0 6.343 0 12 0h1c5.657 0 8.485 0 10.243 1.757C25 3.515 25 6.343 25 12v1c0 5.657 0 8.485-1.757 10.243C21.485 25 18.657 25 13 25h-1c-5.657 0-8.485 0-10.243-1.757C0 21.485 0 18.657 0 13v-1z" fill="#fff"/><path d="M13.302 18.01c-5.698 0-8.948-3.906-9.083-10.406h2.854c.094 4.771 2.198 6.792 3.864 7.209V7.604h2.688v4.115c1.646-.177 3.375-2.052 3.958-4.115h2.688c-.448 2.542-2.323 4.417-3.657 5.188 1.334.625 3.47 2.26 4.282 5.219h-2.959c-.635-1.98-2.218-3.51-4.312-3.72v3.72h-.323z" fill="#009BF0"/></g><defs><clipPath id="clip0_3920_14854"><path fill="#fff" d="M0 0h25v25H0z"/></clipPath></defs></svg>