<svg width="1310" height="651" fill="none" xmlns="http://www.w3.org/2000/svg"><path d="M1310 792.314H0V-28h1310v820.314zM1.694 790.624H1308.31v-816.93H1.694v816.93z" fill="#EEE"/><path d="M1309.15 626.899H.848v1.694H1309.15v-1.694zm0-40.931H.848v1.694H1309.15v-1.694zm0-40.932H.848v1.695H1309.15v-1.695zm0-40.931H.848v1.695H1309.15v-1.695zm0-40.931H.848v1.694H1309.15v-1.694zm0-40.931H.848v1.694H1309.15v-1.694zm0-40.931H.848v1.694H1309.15v-1.694zm0-40.931H.848v1.694H1309.15v-1.694zm0-40.931H.848v1.694H1309.15v-1.694zm0-40.932H.848v1.694H1309.15v-1.694zm0-40.931H.848v1.694H1309.15v-1.694zm0-40.931H.848v1.694H1309.15v-1.694zm0-40.931H.848v1.694H1309.15v-1.694zm0-40.931H.848v1.694H1309.15v-1.694zm0-40.932H.848v1.694H1309.15v-1.694zm0-40.931H.848v1.695H1309.15V12.93z" fill="#EEE"/><path d="M1270.36-27.153h-1.7v818.624h1.7V-27.153zm-39.65 0h-1.69v818.624h1.69V-27.153zm-39.64 0h-1.7v818.624h1.7V-27.153zm-39.65 0h-1.7v818.624h1.7V-27.153zm-39.65 0h-1.7v818.624h1.7V-27.153zm-39.64 0h-1.7v818.624h1.7V-27.153zm-39.65 0h-1.7v818.624h1.7V-27.153zm-39.647 0h-1.694v818.624h1.694V-27.153zm-39.646 0h-1.695v818.624h1.695V-27.153zm-39.645 0h-1.694v818.624h1.694V-27.153zm-39.644 0h-1.695v818.624h1.695V-27.153zm-39.645 0h-1.694v818.624h1.694V-27.153zm-39.646 0h-1.695v818.624h1.695V-27.153zm-39.645 0h-1.694v818.624h1.694V-27.153zm-39.645 0h-1.694v818.624h1.694V-27.153zm-39.644 0h-1.694v818.624h1.694V-27.153zm-39.65 0h-1.695v818.624h1.695V-27.153zm-39.645 0h-1.694v818.624h1.694V-27.153zm-39.648 0h-1.695v818.624h1.695V-27.153zm-39.643 0h-1.694v818.624h1.694V-27.153zm-39.644 0h-1.695v818.624h1.695V-27.153zm-39.645 0h-1.694v818.624h1.694V-27.153zm-39.648 0h-1.695v818.624h1.695V-27.153zm-39.643 0h-1.695v818.624h1.695V-27.153zm-39.648 0h-1.695v818.624h1.695V-27.153zm-39.641 0h-1.695v818.624h1.695V-27.153zm-39.649 0h-1.694v818.624h1.694V-27.153zm-39.642 0h-1.695v818.624h1.695V-27.153zm-39.649 0h-1.694v818.624h1.694V-27.153zm-39.648 0h-1.694v818.624h1.694V-27.153zm-39.644 0H79.29v818.624h1.695V-27.153zm-39.643 0h-1.695v818.624h1.695V-27.153z" fill="#EEE"/></svg>