<svg width="112" height="90" viewBox="0 0 112 90" fill="none" xmlns="http://www.w3.org/2000/svg">
<path d="M10.715 37.2538C27.1381 26.3015 46.1998 15.6138 64.0744 11.1704C85.8059 5.76829 70.1486 21.2313 64.0742 27.5005C43.5 35.5005 -3.26031 70.9592 13.7525 68.3716C30.8397 65.7727 49.578 52.7209 65.6518 45.3569C77.2416 40.0471 107.62 18.0692 101.092 32.8905C93.1771 47.3024 78.2741 54.4802 67.3453 63.0936C52.7911 74.5642 58.8789 70.1267 42.5 79.5005" stroke="#009BF0" stroke-width="20" stroke-linecap="round"/>
<path d="M47.5312 35.2233C48.1125 33.641 49.2599 32.3068 50.7702 31.457C52.2806 30.6071 54.0563 30.2965 55.7829 30.58C57.5095 30.8636 59.0756 31.7231 60.2038 33.0062C61.3319 34.2894 61.9494 35.9134 61.9468 37.5907C61.9468 42.3256 54.5288 44.693 54.5288 44.693M54.7266 54.1628H54.7513M44.5887 61.2651C49.308 63.583 54.7367 64.2108 59.8967 63.0354C65.0566 61.8601 69.6085 58.9588 72.7319 54.8545C75.8554 50.7502 77.3451 45.7127 76.9326 40.6498C76.52 35.5869 74.2324 30.8316 70.4819 27.2407C66.7315 23.6498 61.7648 21.4595 56.4769 21.0646C51.189 20.6696 45.9276 22.0959 41.6408 25.0865C37.3541 28.077 34.3239 32.4351 33.0963 37.3755C31.8687 42.3159 32.5244 47.5136 34.9453 52.0321L30 66L44.5887 61.2651Z" stroke="white" stroke-width="2" stroke-linecap="round" stroke-linejoin="round"/>
</svg>
