<svg width="112" height="90" viewBox="0 0 112 90" fill="none" xmlns="http://www.w3.org/2000/svg">
<path d="M10.6173 37.2089C27.0405 26.2566 46.1022 15.5689 63.9767 11.1255C85.7082 5.72336 70.0509 21.1864 63.9766 27.4556C43.4024 35.4556 -3.35797 70.9143 13.6548 68.3267C30.7421 65.7278 49.4804 52.676 65.5541 45.3119C77.1439 40.0022 107.522 18.0243 100.994 32.8456C93.0794 47.2575 78.1765 54.4353 67.2477 63.0486C52.6935 74.5193 58.7812 70.0818 42.4023 79.4556" stroke="#9CC624" stroke-width="20" stroke-linecap="round"/>
<path d="M46.7479 42.1066H46.7721M61.2521 42.1066H61.2762M49.1653 51.9318C50.374 52.6686 52.0661 53.1599 54 53.1599C55.9339 53.1599 57.626 52.6686 58.8347 51.9318M70.9215 28.1058C73.1115 30.8953 74.6044 34.1821 75.2727 37.6853C76.0901 38.0875 76.7795 38.7156 77.2618 39.4976C77.7442 40.2795 78 41.1837 78 42.1066C78 43.0295 77.7442 43.9337 77.2618 44.7156C76.7795 45.4976 76.0901 46.1257 75.2727 46.5279C74.2291 51.4736 71.548 55.9061 67.6766 59.0858C63.8053 62.2654 58.9779 64 54 64C49.0221 64 44.1947 62.2654 40.3234 59.0858C36.452 55.9061 33.7709 51.4736 32.7273 46.5279C31.9099 46.1257 31.2205 45.4976 30.7382 44.7156C30.2558 43.9337 30 43.0295 30 42.1066C30 41.1837 30.2558 40.2795 30.7382 39.4976C31.2205 38.7156 31.9099 38.0875 32.7273 37.6853C33.7287 32.7002 36.3918 28.2188 40.2671 24.997C44.1424 21.7752 48.9928 20.0103 54 20C58.8347 20 62.4607 22.7019 62.4607 26.1407C62.4607 29.5795 60.2851 32.2814 57.626 32.2814C55.6921 32.2814 54 31.2989 54 29.8252" stroke="white" stroke-width="2" stroke-linecap="round" stroke-linejoin="round"/>
</svg>
