<svg width="112" height="90" viewBox="0 0 112 90" fill="none" xmlns="http://www.w3.org/2000/svg">
<path d="M10.6173 37.2089C27.0405 26.2566 46.1022 15.5689 63.9767 11.1255C85.7082 5.72336 70.0509 21.1864 63.9766 27.4556C43.4024 35.4556 -3.35797 70.9143 13.6548 68.3267C30.7421 65.7278 49.4804 52.676 65.5541 45.3119C77.1439 40.0022 107.522 18.0243 100.994 32.8456C93.0794 47.2575 78.1765 54.4353 67.2477 63.0486C52.6935 74.5193 58.7812 70.0818 42.4023 79.4556" stroke="#FF7223" stroke-width="20" stroke-linecap="round"/>
<path d="M67 21.1673H71.5C72.6935 21.1673 73.8381 21.6502 74.682 22.5097C75.5259 23.3693 76 24.5351 76 25.7507V57.834C76 59.0496 75.5259 60.2153 74.682 61.0749C73.8381 61.9344 72.6935 62.4173 71.5 62.4173H44.5C43.3065 62.4173 42.1619 61.9344 41.318 61.0749C40.4741 60.2153 40 59.0496 40 57.834V25.7507C40 24.5351 40.4741 23.3693 41.318 22.5097C42.1619 21.6502 43.3065 21.1673 44.5 21.1673H49M51.25 44.084L55.75 48.6673L64.75 39.5006M51.25 16.584H64.75C65.9926 16.584 67 17.61 67 18.8757V23.459C67 24.7246 65.9926 25.7507 64.75 25.7507H51.25C50.0074 25.7507 49 24.7246 49 23.459V18.8757C49 17.61 50.0074 16.584 51.25 16.584Z" stroke="white" stroke-width="2" stroke-linecap="round" stroke-linejoin="round"/>
</svg>
