<svg width="112" height="90" viewBox="0 0 112 90" fill="none" xmlns="http://www.w3.org/2000/svg">
<path d="M10.6173 37.2089C27.0405 26.2566 46.1022 15.5689 63.9767 11.1255C85.7082 5.72336 70.0509 21.1864 63.9766 27.4556C43.4024 35.4556 -3.35797 70.9143 13.6548 68.3267C30.7421 65.7278 49.4804 52.676 65.5541 45.3119C77.1439 40.0022 107.522 18.0243 100.994 32.8456C93.0794 47.2575 78.1765 54.4353 67.2477 63.0486C52.6935 74.5193 58.7812 70.0818 42.4023 79.4556" stroke="#FF4174" stroke-width="20" stroke-linecap="round"/>
<path d="M43.6286 39.9429H52.2571M47.9429 35.6286V44.2571M63.0429 42.1H63.0644M69.5143 37.7857H69.5359M68.0474 27H45.0954C42.9605 27.0005 40.9015 27.7925 39.3165 29.2229C37.7315 30.6532 36.7331 32.6204 36.5143 34.7441C36.5014 34.8563 36.4927 34.962 36.4776 35.072C36.3029 36.5259 35 47.3979 35 50.7286C35 52.4449 35.6818 54.0909 36.8954 55.3046C38.1091 56.5182 39.7551 57.2 41.4714 57.2C43.6286 57.2 44.7071 56.1214 45.7857 55.0429L48.8359 51.9927C49.6448 51.1835 50.742 50.7288 51.8861 50.7286H61.2567C62.4009 50.7288 63.498 51.1835 64.3069 51.9927L67.3571 55.0429C68.4357 56.1214 69.5143 57.2 71.6714 57.2C73.3878 57.2 75.0338 56.5182 76.2474 55.3046C77.461 54.0909 78.1429 52.4449 78.1429 50.7286C78.1429 47.3958 76.8399 36.5259 76.6652 35.072C76.6501 34.9642 76.6415 34.8563 76.6285 34.7463C76.4102 32.6222 75.412 30.6545 73.827 29.2237C72.242 27.7928 70.1827 27.0006 68.0474 27Z" stroke="white" stroke-width="2" stroke-linecap="round" stroke-linejoin="round"/>
</svg>
