<svg width="112" height="90" viewBox="0 0 112 90" fill="none" xmlns="http://www.w3.org/2000/svg">
<path d="M10.6173 37.2089C27.0405 26.2566 46.1022 15.5689 63.9767 11.1255C85.7082 5.72336 70.0509 21.1864 63.9766 27.4556C43.4024 35.4556 -3.35797 70.9143 13.6548 68.3267C30.7421 65.7278 49.4804 52.676 65.5541 45.3119C77.1439 40.0022 107.522 18.0243 100.994 32.8456C93.0794 47.2575 78.1765 54.4353 67.2477 63.0486C52.6935 74.5193 58.7812 70.0818 42.4023 79.4556" stroke="#9155E8" stroke-width="20" stroke-linecap="round"/>
<path d="M75.4355 32.1331V29.0968C75.4355 28.0231 75.009 26.9934 74.2497 26.2341C73.4905 25.4749 72.4608 25.0484 71.3871 25.0484H43.0484C41.9747 25.0484 40.945 25.4749 40.1857 26.2341C39.4265 26.9934 39 28.0231 39 29.0968V57.4355C39 58.5092 39.4265 59.5389 40.1857 60.2981C40.945 61.0573 41.9747 61.4839 43.0484 61.4839H50.1331M65.3145 21V29.0968M49.121 21V29.0968M39 37.1935H49.121M68.3508 52.375L65.3145 49.946V45.2903M77.4597 49.3387C77.4597 56.0463 72.0221 61.4839 65.3145 61.4839C58.6069 61.4839 53.1694 56.0463 53.1694 49.3387C53.1694 42.6311 58.6069 37.1935 65.3145 37.1935C72.0221 37.1935 77.4597 42.6311 77.4597 49.3387Z" stroke="white" stroke-width="2" stroke-linecap="round" stroke-linejoin="round"/>
</svg>
