<svg width="751" height="853" viewBox="0 0 751 853" fill="none" xmlns="http://www.w3.org/2000/svg">
<mask id="mask0_4329_8078" style="mask-type:alpha" maskUnits="userSpaceOnUse" x="125" y="17" width="541" height="713">
<path d="M438.42 63.9968C356.035 200.927 57.0496 462.477 312.778 402.102C385.271 398.965 401.07 492.008 323.187 580.443C303.881 605.134 274.805 630.773 267.938 659.361C341.677 638.085 426.598 581.857 503.989 534.946C533.045 520.42 710.484 375.801 655.01 474.793C580.561 557.287 148.045 860.524 207.189 665.347C221.096 617.432 255.348 582.003 284.212 538.125C335.592 457.662 173.097 527.964 153.828 498.571C81.1322 456.547 159.864 305.627 242.758 214.984C286.371 169.985 402.311 -0.834316 441.124 19.4158C450.381 26.3028 451.224 45.5176 438.509 63.9684L438.42 63.9968Z" fill="white"/>
</mask>
<g mask="url(#mask0_4329_8078)">
<rect x="103" y="216" width="465" height="477" fill="white"/>
</g>
</svg>
