<svg width="406" height="374" viewBox="0 0 406 374" fill="none" xmlns="http://www.w3.org/2000/svg">
<mask id="mask0_4329_11459" style="mask-type:alpha" maskUnits="userSpaceOnUse" x="4" y="0" width="398" height="366">
<path d="M381.708 326.868L381.92 326.914L381.991 326.865C395.224 328.805 402.371 338.526 400.97 346.785C399.785 350.623 396.877 353.744 392.531 356.263C388.172 358.792 382.402 360.692 375.589 362.089C361.965 364.883 344.285 365.643 325.658 365.479C308.662 365.329 290.905 364.409 274.761 363.574C273.219 363.494 271.691 363.415 270.18 363.337C252.875 362.449 237.747 361.756 227.971 362.388C189.947 363.519 146.227 356.612 114.119 341.693C98.0643 334.232 84.9528 324.786 76.894 313.379C68.8486 301.991 65.8219 288.626 69.9582 273.247L69.9834 273.153L69.9717 273.057C69.6054 270.039 70.836 266.472 73.2819 262.466C75.72 258.474 79.319 254.12 83.5699 249.554C88.586 244.167 94.4614 238.531 100.364 232.87C104.487 228.915 108.623 224.947 112.489 221.043C117.175 216.31 121.45 211.682 124.776 207.316C128.096 202.959 130.502 198.823 131.403 195.077C132.311 191.299 131.691 187.892 128.936 185.106C126.219 182.357 121.48 180.273 114.293 178.94L114.285 178.939C106.369 177.61 98.5167 176.735 90.7902 175.924C89.8043 175.821 88.8206 175.718 87.8391 175.616C81.1236 174.916 74.5113 174.228 68.0258 173.29C53.1623 171.14 39.0141 167.687 25.9671 159.835L25.9608 159.831C12.4985 151.993 5.94412 143.717 4.71564 135.291C3.48699 126.863 7.5582 118.097 15.7998 109.213C32.2865 91.4415 65.1391 73.5506 103.613 57.5469C142.063 41.5532 186.047 27.4762 224.72 17.3041C263.357 7.1419 296.644 0.890384 313.813 0.501432C322.112 2.67598 327.045 5.01 329.386 7.3877C330.544 8.56386 331.037 9.71897 331.033 10.8536C331.028 11.9997 330.517 13.2143 329.485 14.4991C327.412 17.0824 323.378 19.7768 317.943 22.5056C312.525 25.2255 305.778 27.9493 298.345 30.6144C283.478 35.9443 265.911 41.0225 250.822 45.3548L249.263 45.8021C242.327 47.793 235.965 49.6192 230.706 51.229C225.081 52.9508 220.682 54.4356 218.192 55.6185C210.258 58.5854 202.171 61.5464 194.01 64.5345C145.07 82.4544 93.4745 101.347 56.3189 128.289L55.7438 128.706L56.3304 129.106C63.9499 134.31 73.8632 135.914 84.2034 136.39C89.0687 136.614 94.0493 136.589 98.9477 136.565C99.2604 136.563 99.5727 136.561 99.8847 136.56C105.09 136.535 110.187 136.528 114.97 136.838L114.988 136.839L115.006 136.839C151.342 136.584 177.125 150.164 189.456 168.634C201.765 187.072 200.739 210.475 183.295 230.136C165.226 244.571 153.249 256.597 146.335 266.635C139.422 276.672 137.509 284.816 139.775 291.422C142.036 298.015 148.398 302.885 157.57 306.535C166.756 310.191 178.869 312.665 192.82 314.397C217.1 317.41 247.051 318.183 277.028 318.957C281.499 319.073 285.971 319.188 290.425 319.311C324.764 320.258 358.012 321.649 381.708 326.868Z" fill="#FFC93A" stroke="black"/>
</mask>
<g mask="url(#mask0_4329_11459)">
<g filter="url(#filter0_d_4329_11459)">
<rect x="4" y="-5" width="398" height="386" fill="white"/>
<rect x="4.5" y="-4.5" width="397" height="385" stroke="black"/>
</g>
</g>
<defs>
<filter id="filter0_d_4329_11459" x="0" y="-5" width="406" height="394" filterUnits="userSpaceOnUse" color-interpolation-filters="sRGB">
<feFlood flood-opacity="0" result="BackgroundImageFix"/>
<feColorMatrix in="SourceAlpha" type="matrix" values="0 0 0 0 0 0 0 0 0 0 0 0 0 0 0 0 0 0 127 0" result="hardAlpha"/>
<feOffset dy="4"/>
<feGaussianBlur stdDeviation="2"/>
<feComposite in2="hardAlpha" operator="out"/>
<feColorMatrix type="matrix" values="0 0 0 0 0 0 0 0 0 0 0 0 0 0 0 0 0 0 0.25 0"/>
<feBlend mode="normal" in2="BackgroundImageFix" result="effect1_dropShadow_4329_11459"/>
<feBlend mode="normal" in="SourceGraphic" in2="effect1_dropShadow_4329_11459" result="shape"/>
</filter>
</defs>
</svg>
