<svg width="730" height="482" viewBox="0 0 730 482" fill="none" xmlns="http://www.w3.org/2000/svg">
<path d="M726.123 384.818C560.094 377.508 149.22 456.751 367.525 315.645C418.024 269.367 352.678 217.182 229.132 228.692C196.25 230.301 156.135 237.912 128.306 229.587C194.404 190.637 296.37 160.03 385.765 130.192C428.251 116.011 927.741 11.4601 810.414 3.48754C356.803 36.7101 -114.853 218.099 83.2539 266.862C131.483 279.235 182.996 272.617 237.828 273.339C337.353 275.682 172.621 350.997 183.821 376.876C169.978 443.573 344.987 459.571 473.646 445.755C539.146 437.279 895.473 420.045 904.645 385.417C905.157 376.234 838.789 379.041 726.123 384.818Z" fill="#FFC93A"/>
</svg>
