<svg width="106" height="51" viewBox="0 0 106 51" fill="none" xmlns="http://www.w3.org/2000/svg">
<path d="M81.2025 5.01854C81.9211 2.87817 83.3463 0.341403 85.8048 0.00542428C89.8443 -0.221704 91.4383 6.74408 92.2394 9.60911C99.0576 7.31083 97.8988 12.0657 98.482 16.3619C103.381 16.9439 107.696 22.053 105.335 26.9795C104.135 29.4833 101.686 31.1364 99.1386 32.0385C98.9914 34.3316 99.3376 36.4641 99.6877 38.7142C97.8699 40.1871 95.8791 40.8545 93.5488 40.2381C92.6789 47.6015 86.9617 53.2746 83.1108 44.3652C75.343 49.9647 74.8163 33.6608 74.6348 29.7803C72.044 29.8364 69.4462 29.7996 66.8548 29.7996L48.8801 29.8017C47.8685 29.8094 46.894 30.0406 45.8837 30.0494L37.9636 30.0436C36.3448 30.0473 34.7002 30.0355 33.0861 30.1602C32.7784 34.4634 33.0465 49.5508 24.9429 45.7539C24.1711 48.0974 22.3626 50.4205 19.6538 50.2527C16.1804 49.3643 14.3026 44.1637 13.9246 41.0298C8.30101 40.8646 6.90459 39.4579 6.87224 33.8277C-1.95919 33.0777 -2.38388 19.8046 6.20799 18.192C6.21099 16.7892 6.2772 15.3542 6.20607 13.9548C6.18314 13.5057 5.85271 12.9775 6.03154 12.5547C6.88724 10.5326 11.2661 10.9207 12.8222 11.5596C13.5177 8.63738 14.5488 2.94567 17.8396 1.79267C21.0404 0.671169 22.969 4.506 23.7863 6.94914C25.173 5.49615 27.3207 5.1486 28.9251 6.47624C32.0797 9.08672 32.5646 17.7082 32.9042 21.6319C44.1758 20.6446 55.5948 20.2638 66.9081 20.5882C69.3609 20.6587 71.7783 20.5944 74.2303 20.798C74.1613 17.3746 73.8975 11.1562 75.1441 7.97421C76.1092 5.51094 78.6059 3.96775 81.2025 5.01854ZM85.7196 2.60069C78.7544 7.01684 83.1196 39.9906 86.4033 45.159C86.7541 45.7114 87.2392 46.2645 87.9424 46.2673C93.287 43.5899 91.1314 25.0791 90.6643 20.0182C90.4479 17.6711 89.375 2.17193 85.7196 2.60069ZM18.6007 4.1336C13.8399 7.93243 14.6966 24.221 15.0082 29.6644C15.2076 33.1493 16.1372 45.9953 19.9139 47.765C22.2446 47.9742 23.5328 42.9113 23.6403 41.258C23.9885 35.9008 22.8698 29.4655 22.7614 23.9274C22.7104 21.3172 22.9187 3.90561 18.6007 4.1336ZM78.5706 7.36847C76.7585 8.36848 77.1109 11.3031 77.0186 13.0533C76.7537 18.0679 76.6027 43.0485 80.358 42.8398C82.6025 41.5758 81.6959 40.3741 81.2901 37.8894C79.9758 29.8398 79.0188 21.4166 79.5746 13.2468C79.6865 11.6016 80.8742 7.2429 78.5706 7.36847ZM26.4889 8.20841C24.7897 9.70232 24.9675 11.4624 25.1227 13.4572C25.4649 17.8601 25.2579 22.2666 25.4816 26.6716C25.6879 30.7385 26.1737 34.7998 26.2088 38.8751C26.217 39.8384 26.0492 42.4196 26.1998 43.1783C26.4055 44.2162 27.8467 43.7481 28.295 43.1725C31.7608 37.0197 30.6627 18.0517 28.7659 11.2005C28.4351 10.0057 27.9494 8.30291 26.4889 8.20841ZM94.3305 11.7876C93.7758 11.9923 93.2682 12.2882 93.0012 12.841C92.6401 13.5881 94.1325 30.1724 94.1741 32.2243C94.2112 34.064 94.0181 35.9033 94.0605 37.7424C94.4117 37.8358 94.7659 37.9475 95.1253 38.0019C95.7792 38.099 96.6421 38.2535 96.6858 37.382C96.9172 32.7475 96.4152 27.2088 96.175 22.5518L95.9226 16.7315C95.8636 15.0951 96.4124 11.7218 94.3305 11.7876ZM8.75505 13.4497C8.94104 16.9458 8.77176 20.4866 8.82683 23.9904C8.86668 26.5208 9.06403 29.1077 9.22152 31.6337C9.41479 34.7368 8.75976 39.0981 13.339 38.4688C12.6507 34.6539 12.2222 29.1966 12.1928 25.329L12.2046 18.3054C12.2183 17.0836 12.2878 15.8665 12.2612 14.6441C11.2196 13.5781 10.1605 13.3857 8.75505 13.4497ZM98.6839 18.9848C98.4623 21.8274 99.0912 26.1925 99.0852 29.4201C99.9967 28.9585 100.913 28.4822 101.668 27.7813C104.943 24.5482 102.851 19.2677 98.6839 18.9848ZM6.12254 21.0208C2.31946 22.2473 1.24 27.0646 4.11661 29.9001C4.85036 30.5568 5.54049 30.9459 6.51033 31.1602C6.5249 30.2765 6.27099 21.2677 6.12254 21.0208ZM55.1358 23.0521C48.1259 23.0294 40.1772 23.5443 33.1832 24.3069C33.1517 25.3712 33.1489 26.4338 33.1523 27.4983C36.087 27.5058 39.0337 27.5551 41.9677 27.4936L52.3239 27.3127C59.6893 27.341 67.0511 27.1404 74.4171 27.2407C74.3852 25.9986 74.3728 24.7507 74.29 23.5107C72.7623 23.1179 70.98 23.2825 69.4038 23.2379C64.5908 23.1018 59.9509 23.0845 55.1358 23.0521Z" fill="white"/>
</svg>
