<svg width="91" height="77" viewBox="0 0 91 77" fill="none" xmlns="http://www.w3.org/2000/svg">
<path d="M22.1184 49.6897C19.1292 53.7978 13.8583 58.8292 8.6836 59.2183C6.1876 59.4061 3.60486 58.839 3.53773 55.9027C3.48945 53.7889 11.9096 50.4716 8.63974 44.1872C7.98112 42.9211 6.63579 41.9622 5.69133 40.9002C-2.14377 32.0898 -1.81198 19.8653 6.21011 11.2568C13.142 3.81829 23.0709 0.394186 33.0568 0.0519868C43.9147 -0.536041 56.0038 3.881 62.8429 12.4573C71.577 23.4096 68.9329 36.6519 58.2026 45.0972C62.5131 44.8641 67.0549 45.0133 71.4597 44.8921C74.2769 44.8146 77.3017 44.6738 80.1018 44.6594C81.9143 44.65 82.5614 47.0405 80.8079 47.7219C79.9896 48.0398 67.6285 48.1945 65.7263 48.1949L58.7377 48.1927C55.0641 48.1885 54.5792 47.8665 51.1441 49.3325C48.6075 50.4148 45.9821 51.0442 43.2963 51.6449C36.9305 52.8718 28.0714 52.3043 22.1184 49.6897ZM33.2898 3.18544C24.1097 3.44012 15.0596 6.49606 8.61493 13.3027C1.63313 20.6768 1.14015 31.0976 8.00362 38.7191C8.95886 39.7797 10.1886 40.7348 10.9565 41.932C13.4532 45.8247 12.4724 50.9211 9.38646 54.1913C8.77304 54.8413 7.99208 55.3445 7.44868 56.0541L7.40983 56.1041C11.5624 56.2057 16.7994 51.8967 19.1456 48.4795C20.1914 46.9559 20.1483 45.5231 22.5535 46.5499C31.1021 49.8816 41.3883 50.1371 49.8752 46.4069C60.6805 41.6581 68.5187 30.863 63.2571 19.0872C58.3428 8.08914 44.7853 2.60088 33.2898 3.18544Z" fill="white"/>
<path d="M47.1519 14.6219L20.618 14.6258C19.6406 14.6281 16.8698 14.9561 16.1136 14.2801C15.4156 13.6561 15.3319 12.7576 16.0074 12.0859C16.8378 11.26 18.3251 11.4714 19.3961 11.4769L46.5549 11.4806C47.5109 11.4792 48.5163 11.3975 49.4652 11.4708C50.7492 11.5697 51.5497 13.2147 50.5553 14.1811C49.8209 14.8945 48.1133 14.6331 47.1519 14.6219Z" fill="white"/>
<path d="M52.8071 22.2575C50.4748 22.2956 48.1308 22.2469 45.7973 22.2467L19.1608 22.2436C17.5472 22.2436 15.9151 22.3154 14.3047 22.2696C12.0439 22.2054 11.8069 19.7015 13.8882 19.1563C15.4171 19.0205 17.2456 19.1337 18.805 19.1358L44.4147 19.1369C47.1265 19.1365 49.8589 19.0646 52.5678 19.1417C54.7137 19.2029 54.8636 21.8776 52.8071 22.2575Z" fill="white"/>
<path d="M52.5869 29.5358L18.17 29.5425C17.1425 29.5431 14.3131 29.8451 13.4524 29.3929C11.8718 28.5625 12.5708 26.8711 14.0013 26.4231C15.6475 26.3012 17.3737 26.4018 19.027 26.4029L44.2062 26.4043C45.5958 26.4037 52.2887 26.1088 53.138 26.6028C54.5429 27.4199 54.0723 29.2492 52.5869 29.5358Z" fill="white"/>
<path d="M83.0925 73.3734C80.2954 69.1098 78.9341 67.3569 80.7363 61.8452C81.4649 59.6169 81.5411 60.1019 83.1042 58.7475C86.8438 55.5073 88.5711 49.8072 87.03 45.0988C85.0587 39.0764 79.5831 34.6028 73.764 32.4488C72.8094 32.0954 71.249 31.7975 70.956 30.6422C70.7229 29.7222 71.381 28.9591 72.2514 28.7735C73.9752 28.6967 78.4102 31.0182 80.0315 32.0229C90.4227 38.4618 95.1746 51.3913 85.473 60.7576C83.9877 62.1918 83.326 62.9004 83.1411 65.0779C82.7087 70.1705 86.9615 71.6628 87.6218 74.254C86.9744 77.246 82.5835 76.8679 80.5134 75.883C76.9119 74.1695 73.7813 69.5286 72.4608 65.8248C62.7744 68.0432 47.7206 65.9512 40.0231 59.877C39.0856 59.0807 36.4263 57.0486 38.566 55.816C39.6584 55.1868 40.4515 56.104 41.2044 56.7574C48.4454 63.0424 61.3264 64.4514 70.6912 62.9729C74.9818 62.2955 74.1008 61.9075 75.9396 65.9723C77.3247 69.0342 79.6947 72.5008 83.0925 73.3734Z" fill="white"/>
<path d="M50.2307 37.0476C48.7449 37.2344 47.1405 37.1124 45.639 37.1109L22.1106 37.1086C20.3582 37.1039 14.9707 37.7181 14.5087 35.9456C14.2369 34.9026 15.0015 34.2177 15.9392 34.0018C17.5573 33.9018 19.2229 33.9868 20.8472 33.9868L43.3644 33.9893C44.6888 33.9897 49.9852 33.6833 50.9507 34.2356C52.2925 35.0032 51.7649 36.7389 50.2307 37.0476Z" fill="white"/>
<path d="M80.7549 55.5085C79.0024 55.9555 74.7427 55.6904 72.8357 55.6893L50.6593 55.6875C49.2719 55.685 47.8663 55.742 46.4816 55.7062C44.4087 55.6527 43.9659 53.2087 45.8472 52.5106C47.2421 52.4554 48.6715 52.5539 50.0709 52.5547L78.5596 52.5522C79.2272 52.5489 80.6653 52.3148 81.2329 52.7153C82.5842 53.6686 82.1216 54.9674 80.7549 55.5085Z" fill="white"/>
</svg>
