<svg width="93" height="88" viewBox="0 0 93 88" fill="none" xmlns="http://www.w3.org/2000/svg">
<path d="M41.0776 61.1815C36.1613 61.1405 29.7349 59.4586 25.8507 56.2993C23.4659 54.3598 24.706 54.7974 21.6539 54.5468C12.5305 53.7974 0.879527 45.4163 0.0629436 35.7361C-0.371643 30.5842 1.48746 27.1222 4.30209 23.0626C5.66075 21.1031 5.48571 21.7752 6.47614 19.4173C8.61108 14.3347 13.8325 10.2677 19.0873 8.96896C23.8873 7.78251 23.161 8.13472 26.9594 4.78351C30.1506 1.96802 33.902 0.503434 38.1167 0.134498C44.5231 -0.781494 46.1737 3.17582 50.4509 6.10672C51.8968 5.14591 52.8757 3.60534 54.1947 2.49007C58.8358 -1.43358 67.3533 0.465348 71.5518 4.18548C74.0387 6.38891 73.1076 6.4468 76.352 7.84888C80.7223 9.73722 82.7362 14.9902 84.0662 19.1924C85.6731 24.2694 85.5698 22.6729 88.8718 26.6538C92.1326 30.5852 92.9953 35.8819 92.5319 40.851C92.0933 45.5544 90.1944 48.3434 86.6597 51.2775C87.1489 53.5167 86.7649 54.6007 85.4465 56.5452C81.2336 62.7584 74.9436 65.6601 67.8672 67.0337C66.625 72.1353 66.8593 78.7059 66.8651 83.9944C66.8695 88.0867 63.869 87.6568 60.7053 87.6348C53.371 87.6597 55.0534 84.5756 53.4895 78.402C51.2478 69.5527 44.8191 67.8218 41.0776 61.1815ZM38.3897 3.38087C33.8794 3.72807 30.9363 5.49811 27.7782 8.57232C29.0851 9.46966 30.506 10.4464 31.548 11.6492C36.8745 11.4149 39.5871 13.2327 41.1169 18.2568C41.4375 19.3103 41.8811 20.5928 40.9715 21.4843C39.0125 23.404 38.1398 20.0978 37.8434 18.9256C36.8505 14.9977 33.5872 13.7022 30.5024 16.3521C29.0703 17.5824 27.8246 19.2184 26.9088 20.8724C26.2946 21.9817 24.8847 25.1683 23.0902 23.0887C21.378 21.1042 27.4053 14.7155 28.746 13.5782C25.9326 10.8133 25.5287 10.71 21.9936 11.5952C16.9229 12.8651 9.00041 16.9444 9.041 23.0703C9.06427 26.5754 12.2322 29.1348 15.4108 29.8577C19.7965 30.8549 22.8007 33.5717 22.8857 38.4221C23.0111 45.5767 18.5606 44.5065 18.6826 42.4044C18.7224 41.7154 19.1461 40.9925 19.356 40.3366C20.5007 36.7578 18.4271 34.0651 15.0123 33.2151C11.8692 32.361 8.82883 30.8093 7.15015 27.8899C6.81526 27.3075 6.55847 26.6373 6.18107 26.0874C3.9571 29.6834 2.53376 32.704 3.59846 37.1574C5.39895 44.6882 14.8311 50.4983 22.2307 51.1735C23.2279 51.2645 24.3282 51.3181 25.3084 51.0709C27.4468 50.532 31.9687 46.1736 33.9084 47.2894C34.6903 47.7392 34.8852 48.8196 34.4102 49.559C34.0617 50.1019 28.7945 53.0191 27.7923 53.6681C34.0263 58.0453 42.6582 60.1143 48.5316 54.1754C48.4398 50.2823 48.5077 46.3723 48.5075 42.4771L48.5102 13.0436C48.5114 11.7285 48.5847 10.3795 48.5158 9.06937C45.7874 6.19059 42.7032 2.96903 38.3897 3.38087ZM59.9947 3.67902C55.6991 4.15028 55.002 7.2066 51.8495 9.09206C51.6995 12.661 51.9174 16.2332 51.8224 19.8016C51.8064 20.4048 51.7289 21.0229 51.7656 21.6247C56.2602 22.0841 59.4431 24.2098 62.9512 26.8341C63.6508 27.3573 64.7311 28.0109 65.2743 28.6741C66.2436 29.8573 64.9808 31.4046 63.6247 31.1526C61.6969 30.7943 57.3239 25.9283 51.7933 24.9175C51.8876 27.1032 51.8301 29.3074 51.8305 31.4956L51.8312 50.667C51.8308 51.8844 52.1878 55.3674 51.3482 56.2793C50.0148 57.7278 46.3362 59.9358 44.4771 60.5192C45.7401 62.3904 47.3919 63.8179 49.014 65.3579C52.2702 68.4496 55.1216 72.087 56.3787 76.4635C56.9405 78.4197 57.3639 83.1213 58.313 84.2188C60.0376 84.4495 61.8292 84.2565 63.5683 84.2688C63.4408 79.2728 63.5262 74.1929 64.1317 69.2277C64.8909 63.0029 65.947 64.4946 71.2498 62.8705C75.5726 61.5468 80.1999 58.4547 82.6914 54.6709C83.0702 54.0451 83.3495 53.4294 83.5878 52.7387C82.9446 51.6705 81.9037 50.7559 81.0456 49.8524C76.4876 56.5025 68.5691 60.3588 61.3635 55.1989C59.9049 54.1542 60.0407 52.1164 61.9164 51.941C63.0532 51.8346 65.6642 54.4498 68.9325 54.3077C71.782 54.1838 79.1167 49.3975 78.8899 46.1569C78.6106 42.1638 74.0884 42.3448 73.9622 40.3074C73.9006 39.3117 74.7168 38.5252 75.6907 38.509C77.027 38.4871 79.0605 40.1375 79.9663 41.056C81.6121 42.7251 81.7339 44.5647 82.7593 46.501C83.2112 47.3539 83.9367 48.0989 84.5365 48.8535C87.7717 45.993 89.0684 44.1231 89.3279 39.6962C89.585 35.3084 88.7835 31.43 85.7637 28.0711C82.4558 24.3918 82.315 24.849 80.8458 20.0499C80.0975 17.6055 77.6227 10.8186 74.3631 10.6996C70.455 10.5567 68.9071 13.4818 66.7527 14.3512C64.4581 15.2772 62.2374 11.0852 70.7856 8.00391C68.0911 5.29037 63.8647 3.06791 59.9947 3.67902Z" fill="white"/>
<path d="M67.5066 43.6255C65.636 43.7146 65.4381 41.9589 65.7353 40.5457C67.1554 33.7908 78.2743 29.5317 68.5225 25.4559C66.6991 24.6938 66.7226 22.7933 68.5102 22.1256C71.1949 21.8883 74.7515 25.1529 75.5473 27.5652C77.5458 33.6234 70.0603 35.9973 69.1286 40.8692C68.8924 42.1051 68.9133 43.1963 67.5066 43.6255Z" fill="white"/>
<path d="M40.8708 43.5937C32.9081 44.202 30.037 40.3397 27.4999 33.4197C26.9313 31.8686 25.0102 28.3316 27.7241 27.7728C31.8171 27.6787 28.8373 39.6237 39.05 40.2804C39.7411 40.3249 40.7529 40.1723 41.3734 40.4916C42.9269 41.2911 42.4046 43.1784 40.8708 43.5937Z" fill="white"/>
</svg>
