<svg width="74" height="94" viewBox="0 0 74 94" fill="none" xmlns="http://www.w3.org/2000/svg">
<path d="M65.9006 64.9274C66.2032 64.5242 66.1595 64.0673 66.1327 63.8776C66.0991 63.6404 66.0232 63.3972 65.9505 63.1898C65.8747 62.974 65.7805 62.7373 65.6883 62.5063L65.6718 62.4651C65.5822 62.2408 65.4914 62.0134 65.4037 61.7775C65.216 61.2726 65.0616 60.7771 64.9945 60.316C64.9272 59.8537 64.9585 59.4963 65.0711 59.226L64.1481 58.8412L65.0712 59.2259C65.494 58.2115 66.4546 57.7245 67.9518 57.2847C68.2015 57.2114 68.4835 57.1349 68.777 57.0553C69.2677 56.9222 69.7906 56.7803 70.2492 56.6297C71.0217 56.3759 71.834 56.0346 72.5127 55.4763L72.8729 55.18C72.8592 55.2211 72.8434 55.2586 72.8258 55.2928C72.3065 56.303 71.1822 56.7075 69.5586 57.0966C69.4423 57.1244 69.3227 57.1525 69.2009 57.181C68.5517 57.3332 67.8394 57.5002 67.2208 57.7371C66.474 58.0231 65.6843 58.473 65.2094 59.3039L65.0164 59.6415L65.1023 60.0208C65.2844 60.8257 65.5883 61.5743 65.846 62.2084C66.1179 62.8773 66.3265 63.394 66.4222 63.8657C66.5118 64.3071 66.4805 64.6139 66.3455 64.8807C66.2015 65.165 65.8676 65.5454 65.0722 65.9772L65.0721 65.9772C65.0509 65.9887 65.024 66.0027 64.9925 66.0191C64.7871 66.126 64.3873 66.334 64.0982 66.617C63.6838 67.0224 63.5928 67.5315 63.6229 67.9504C63.6504 68.3343 63.7815 68.7136 63.9077 69.027C64.0141 69.2911 64.1477 69.58 64.2769 69.859C64.305 69.9199 64.333 69.9804 64.3604 70.04C64.52 70.3869 64.6757 70.7363 64.8094 71.0979C65.0781 71.8246 65.2327 72.5372 65.1504 73.2386C65.071 73.9142 64.7612 74.671 63.9336 75.483C61.5302 77.8409 58.3509 77.7942 55.2006 77.673C55.1354 77.6705 55.0701 77.6679 55.0046 77.6654C53.5754 77.6096 52.0744 77.5511 50.8554 77.8646C50.1893 78.036 49.5461 78.3305 49.0161 78.8396C48.4804 79.3541 48.1241 80.0267 47.937 80.8463L48.9119 81.0689L47.937 80.8464C47.6385 82.154 47.817 83.4632 48.1399 84.6674C48.3981 85.6306 48.7718 86.6007 49.1135 87.4879C49.1944 87.6982 49.2736 87.9038 49.3491 88.1036C49.7609 89.1941 50.0617 90.1114 50.123 90.9025C50.1444 91.1784 50.1361 91.4284 50.0935 91.6577L49.8492 90.6335C49.7425 90.1861 49.6222 89.7262 49.4585 89.2575L49.4546 89.2465L49.4505 89.2356C49.3229 88.8961 49.1938 88.5612 49.066 88.2298C48.5507 86.8939 48.057 85.6137 47.7736 84.3084C47.4284 82.7182 47.4263 81.2019 48.0964 79.7042C48.5404 78.7122 49.2128 78.1811 50.0915 77.8688C51.0269 77.5363 52.1949 77.4531 53.5953 77.4412C53.9526 77.4381 54.3269 77.4398 54.7123 77.4416C55.7753 77.4465 56.9226 77.4518 58.0317 77.3585C59.5674 77.2293 61.1575 76.9067 62.6086 76.0801C63.8652 75.3644 64.6286 74.5067 64.8636 73.4472C65.0863 72.4431 64.7737 71.4855 64.4645 70.7269C64.336 70.4118 64.2109 70.1331 64.0931 69.8706C63.8883 69.4147 63.7057 69.0079 63.5661 68.5447C63.3691 67.8913 63.341 67.3406 63.5641 66.7996C63.6766 66.5266 63.9481 66.2773 64.425 65.9847C64.5376 65.9156 64.6518 65.8496 64.7728 65.7801L64.7974 65.766C64.9071 65.7029 65.0261 65.6345 65.1376 65.5664C65.3473 65.4382 65.6741 65.2292 65.9006 64.9274ZM65.9006 64.9274L65.1008 64.3272L65.9007 64.9273C65.9007 64.9273 65.9006 64.9274 65.9006 64.9274ZM25.1021 90.2932L25.1021 90.2932C24.9208 90.3072 24.7482 90.3225 24.5823 90.3373C24.0647 90.3835 23.6113 90.4239 23.1564 90.3971C22.6501 90.3673 22.2585 90.2549 21.9402 90.0175L23.4835 89.9584C26.9819 89.8245 31.8194 89.686 36.5156 89.886C41.2502 90.0876 45.698 90.63 48.4934 91.7893L49.826 92.3419C49.7827 92.4094 49.7345 92.4751 49.6812 92.5392C49.6297 92.5475 49.538 92.555 49.3905 92.5433C49.1097 92.5209 48.7544 92.4397 48.3423 92.3133C47.9354 92.1884 47.5204 92.0346 47.116 91.8847L47.0854 91.8734C46.7129 91.7352 46.3158 91.5879 45.9969 91.5037C43.3777 90.8119 39.4398 90.4145 35.5599 90.2351C31.6643 90.0549 27.7365 90.0907 25.1021 90.2932ZM22.553 88.5077L21.8332 89.9304C21.7731 89.8761 21.7712 89.8509 21.7704 89.8406C21.7703 89.8397 21.7703 89.839 21.7702 89.8383C21.7649 89.7967 21.7682 89.6932 21.8395 89.4977C21.9099 89.3048 22.0206 89.0903 22.1623 88.8392C22.1934 88.7842 22.2281 88.724 22.2645 88.6607C22.3735 88.4712 22.4983 88.2543 22.5911 88.0654L21.6936 87.6244L22.5911 88.0653C24.3777 84.429 23.6565 80.1699 22.0996 76.374C20.5311 72.55 18.0316 68.9852 15.9199 66.569L15.167 67.2271L15.9199 66.569C15.0765 65.6041 14.114 64.7726 13.2063 63.9885C12.9564 63.7726 12.7107 63.5603 12.4727 63.3498L12.4727 63.3498C8.62456 59.9462 5.67945 54.4028 3.73212 48.2902C1.79016 42.1945 0.879316 35.6541 1.0128 30.372C1.40644 14.7956 10.987 2.07166 26.8641 1.05915C33.2635 0.718688 40.1197 1.82769 45.666 4.89435L46.1482 4.02224L45.6661 4.89435C48.434 6.42476 51.2964 9.17612 53.8345 12.3415C56.3636 15.4957 58.5128 18.9884 59.8765 21.924L59.8766 21.924C61.4855 25.3872 62.0532 28.504 62.7201 32.1657C62.8324 32.782 62.9474 33.4137 63.0708 34.0652C64.0061 39.0065 65.9403 43.3677 68.6343 47.528C68.9312 47.9866 69.3598 48.5563 69.8095 49.154C69.8903 49.2614 69.9718 49.3698 70.0534 49.4785C70.6037 50.2125 71.1839 51.0015 71.6841 51.791C72.1888 52.5877 72.5802 53.336 72.782 53.9854C72.8594 54.2344 72.9022 54.4469 72.919 54.6279L72.8114 54.3466C72.4133 53.3063 71.7043 52.2297 71.0055 51.2548C70.7094 50.8416 70.4206 50.4536 70.1451 50.0833C69.7334 49.53 69.3511 49.0163 69.0177 48.5175C66.0349 44.055 63.7279 39.2276 62.7781 33.9988C62.68 33.4587 62.5858 32.916 62.4913 32.3716C61.9435 29.2162 61.3853 26.0008 59.9999 22.8909C57.7954 17.942 53.0973 11.1596 48.9348 7.62953L48.2974 8.3811L48.9348 7.62951C42.9868 2.58553 34.1465 0.905913 26.7696 1.41741C12.3569 2.2745 2.84289 13.313 1.41488 27.1592C0.882443 32.3219 1.44684 38.4033 2.87375 44.1912C4.29969 49.9752 6.60646 55.545 9.61815 59.6545C10.8025 61.2705 12.2294 62.623 13.5985 63.9023C13.6633 63.9629 13.7279 64.0232 13.7924 64.0834C15.1112 65.3149 16.3657 66.4863 17.4314 67.8387L18.2169 67.2198L17.4315 67.8388C19.6026 70.5937 22.4555 76.0712 23.4418 79.4772L24.4024 79.1991L23.4418 79.4772C24.3235 82.5215 23.9958 85.656 22.553 88.5077ZM25.1788 91.2903C25.0282 91.3018 24.8752 91.3156 24.7207 91.3294C23.4974 91.4392 22.1779 91.5575 21.1844 90.6917L25.1788 91.2903Z" fill="white" stroke="white" stroke-width="2"/>
<path d="M29.3996 52.9668C30.6569 52.947 38.3902 45.9428 39.8574 44.549C40.246 44.1792 40.6553 43.793 41.0797 43.3925C45.0318 39.663 50.3021 34.6893 52.5134 30.1532L29.3996 52.9668ZM29.3996 52.9668C28.6405 52.9788 26.1031 50.8068 24.938 49.8095M29.3996 52.9668L24.938 49.8095M24.938 49.8095C24.7821 49.676 24.6507 49.5635 24.5515 49.4802L24.938 49.8095ZM40.4023 42.6567C39.9753 43.0597 39.5622 43.4495 39.1681 43.8245C38.4479 44.5087 36.1624 46.595 33.9031 48.5103C32.7722 49.4691 31.662 50.3729 30.7646 51.034C30.314 51.366 29.9351 51.6233 29.6441 51.7938C29.535 51.8578 29.4483 51.9036 29.3823 51.9349C29.2722 51.8848 29.1215 51.8018 28.9312 51.6816C28.5448 51.4375 28.0757 51.0919 27.5857 50.707C26.8414 50.1222 26.1079 49.4944 25.6027 49.062C25.4409 48.9235 25.3025 48.8051 25.1947 48.7145C21.9193 45.963 17.6322 42.2324 14.0736 38.0844C10.4897 33.9069 7.7786 29.4568 7.42735 25.2705L7.42735 25.2705C6.85339 18.4311 11.4259 12.7907 18.2046 12.2391L18.2338 12.2367L18.2629 12.2326C22.6054 11.6212 27.0449 14.1014 29.2944 17.925L30.2038 19.4707C30.1704 19.5025 30.1397 19.5303 30.1117 19.5545C29.9763 19.4035 29.8093 19.1822 29.5891 18.8718C29.5106 18.7611 29.4274 18.642 29.3392 18.5157C28.8835 17.8634 28.2965 17.0231 27.56 16.2037C25.7589 14.1996 22.9895 12.2314 18.5339 12.5304L18.5339 12.5304L18.5269 12.5309C15.4877 12.7564 12.6979 13.9285 10.6243 16.3424L10.6243 16.3424C8.56534 18.7392 7.68774 21.3107 7.67732 23.9133C7.667 26.4905 8.50622 29.0312 9.76237 31.4073C12.2653 36.1418 16.5518 40.4556 19.7685 43.4689L20.4522 42.7391L19.7685 43.4689C22.6279 46.1474 25.6181 48.8009 28.8428 51.1163L29.4513 51.5532L30.0416 51.0922C33.7339 48.2085 37.1316 45.238 40.5424 42.0469L40.5469 42.0426C40.7709 41.8304 41.0048 41.6099 41.2469 41.3816C43.2451 39.4977 45.8025 37.0864 47.9578 34.4936C50.3434 31.6238 52.4153 28.3279 52.5202 25.1083C52.6817 20.1489 49.7736 15.9392 45.9316 13.8574C42.0658 11.7627 37.1366 11.7705 33.3629 15.4093C33.0009 15.7583 32.6262 16.2511 32.2808 16.7304C32.1131 16.963 31.9419 17.2074 31.7735 17.4479L31.7427 17.4917C31.5628 17.7485 31.3857 18.0009 31.2101 18.243C30.907 18.6613 30.6308 19.0177 30.3854 19.2846L31.0617 17.8426C32.5872 14.59 35.7983 12.7114 39.3478 12.3331C42.9033 11.9542 46.6594 13.101 49.1562 15.7358C52.745 19.523 53.8794 25.0694 51.6146 29.7149L51.6146 29.715C50.4591 32.0853 48.3835 34.6412 46.0429 37.1183C44.1649 39.1058 42.165 40.9932 40.4023 42.6567ZM29.2717 51.9805C29.2718 51.9804 29.2735 51.9799 29.2766 51.9791C29.2733 51.9802 29.2717 51.9806 29.2717 51.9805ZM29.9318 19.6838C29.9318 19.6837 29.9334 19.6829 29.9363 19.6818C29.9333 19.6833 29.9318 19.6838 29.9318 19.6838ZM30.2745 19.7125C30.279 19.7152 30.2814 19.7168 30.2814 19.717C30.2814 19.7172 30.2791 19.7158 30.2745 19.7125Z" fill="white" stroke="white" stroke-width="2"/>
<path d="M45.6854 20.9697L45.6748 20.9528L45.6636 20.9364C44.919 19.8462 44.1577 19.1388 43.3061 18.8787C42.3882 18.5984 41.6227 18.9094 41.0855 19.2461C40.8235 19.4103 40.5859 19.5989 40.3972 19.7502C40.3815 19.7628 40.3662 19.7751 40.3512 19.7871C40.1694 19.933 40.0395 20.0372 39.9161 20.1192C39.8799 20.1432 39.8503 20.1611 39.8268 20.1743C39.7288 20.1037 39.6867 20.0507 39.671 20.0266C39.6577 20.0063 39.658 20.0005 39.6582 19.9971C39.6582 19.9967 39.6582 19.9963 39.6582 19.996C39.6579 19.9599 39.6881 19.7863 39.9459 19.4957C40.4542 18.9226 41.387 18.4163 42.0802 18.2987C43.735 18.1422 45.2785 19.3868 46.0796 20.8231C46.4435 21.4757 46.5413 21.9756 46.5291 22.2211C46.5014 22.219 46.4675 22.2151 46.4269 22.2081C46.3793 22.1605 46.3122 22.0752 46.2268 21.9386C46.1416 21.8023 46.0595 21.6502 45.9693 21.48C45.9615 21.4653 45.9535 21.4502 45.9454 21.4347C45.8686 21.2896 45.776 21.1145 45.6854 20.9697ZM39.9174 20.2341L39.9174 20.2341L39.9174 20.2341ZM46.4548 22.2332C46.4548 22.2332 46.454 22.2326 46.4523 22.2313C46.454 22.2324 46.4548 22.2331 46.4548 22.2332Z" fill="white" stroke="white" stroke-width="2"/>
<path d="M40.9102 35.0056L40.9102 35.0056C40.612 35.2617 37.3767 37.7195 34.1241 40.1579C32.5102 41.3678 30.9101 42.5595 29.6967 43.4502C29.0893 43.896 28.5826 44.2635 28.2209 44.5195C28.1865 44.5438 28.1537 44.5669 28.1224 44.5889C28.1207 44.5867 28.1189 44.5845 28.1172 44.5822C28.3155 44.219 28.6487 43.9161 29.1584 43.4527C29.2081 43.4076 29.2594 43.3609 29.3124 43.3125L28.6407 42.5761L29.3124 43.3125C31.3649 41.4401 33.484 39.9638 35.625 38.472C36.516 37.8513 37.4107 37.2279 38.3061 36.5722C41.316 34.3679 44.2083 31.8741 46.5006 28.088C46.6623 27.821 46.7968 27.5381 46.9091 27.3002C46.9166 27.2843 46.924 27.2686 46.9313 27.2531C47.0409 27.0207 47.1317 26.8281 47.2323 26.6499C47.3577 26.428 47.4683 26.2843 47.5767 26.19C47.585 26.1951 47.5914 26.1997 47.596 26.2036C47.604 26.2295 47.6354 26.3637 47.5455 26.6908C47.3379 27.4457 46.6813 28.5295 45.7525 29.7455C43.9302 32.1313 41.432 34.5575 40.9102 35.0056ZM47.6072 26.216C47.6065 26.2164 47.6028 26.2131 47.598 26.2053C47.6054 26.2117 47.6078 26.2156 47.6072 26.216Z" fill="white" stroke="white" stroke-width="2"/>
<path d="M26.7126 31.9419L26.022 30.8692C25.5489 30.1342 25.0562 29.3445 24.6641 28.4744M26.7126 31.9419L23.8786 26.7168C23.8812 26.7151 23.8837 26.7134 23.8862 26.7118C23.911 26.7427 23.9425 26.7862 23.9796 26.8464C24.1004 27.0423 24.2139 27.3034 24.3299 27.607C24.3586 27.6821 24.3903 27.7682 24.4235 27.8584C24.5021 28.0719 24.5891 28.3081 24.6641 28.4744M26.7126 31.9419L27.5893 31.0152C27.7611 30.8336 27.9461 30.6341 28.1426 30.4223C28.8172 29.6952 29.6265 28.8228 30.4953 28.0316C31.0514 27.5251 31.6058 27.0769 32.1317 26.742C32.6219 26.4297 33.0358 26.2493 33.3659 26.1825C33.3864 26.1851 33.4034 26.1885 33.4171 26.1919C33.4017 26.2346 33.3656 26.3044 33.2852 26.3902L34.0146 27.0742L33.2852 26.3902C33.0382 26.6535 32.5904 26.9784 31.9765 27.4154L31.9377 27.4429C31.3814 27.8388 30.7202 28.3092 30.2012 28.8064M26.7126 31.9419L30.2012 28.8064M24.6641 28.4744L25.5758 28.0635M24.6641 28.4744L25.5758 28.0635M25.5758 28.0635C25.7924 28.5441 26.0446 29.0026 26.3141 29.4515L29.0715 31.4397C26.9636 33.7803 26.4311 34.3716 23.5047 29.2909C23.0429 28.4806 22.2873 26.5824 23.3202 25.8872C24.478 25.1082 25.0202 26.5829 25.3805 27.5626C25.4515 27.7559 25.5155 27.9299 25.5758 28.0635ZM30.2012 28.8064C29.4401 29.5355 28.8167 30.2279 28.3139 30.7864C28.167 30.9495 28.0304 31.1012 27.9037 31.2391C27.6136 31.5546 27.3862 31.7862 27.1907 31.9509C26.9918 32.1186 26.8848 32.1657 26.8452 32.1773C26.844 32.1777 26.8436 32.1783 26.8433 32.1788C26.8425 32.1803 26.8422 32.1808 26.8192 32.1711C26.757 32.1447 26.6141 32.0592 26.3804 31.81C25.9045 31.3023 25.2792 30.368 24.3725 28.7939C24.1769 28.4502 23.9276 27.8844 23.8366 27.3713C23.7913 27.1159 23.7967 26.9352 23.8223 26.8253C23.8419 26.7411 23.8641 26.7265 23.8769 26.7179C23.8775 26.7176 23.878 26.7172 23.8785 26.7169L30.2012 28.8064Z" fill="white" stroke="white" stroke-width="2"/>
</svg>
