<svg width="95" height="84" viewBox="0 0 95 84" fill="none" xmlns="http://www.w3.org/2000/svg">
<path d="M6.30913 50.3338C2.83009 37.7366 9.75485 22.7449 17.9884 13.4369C25.6239 4.80485 34.5691 0.778086 45.8733 0.0645586C48.3183 -0.17649 52.5134 0.301484 54.9456 0.771607C76.0863 4.85746 92.091 29.519 88.0005 50.4038C96.3503 51.9744 97.0875 66.3154 85.1861 66.0565C84.5597 70.8916 83.0424 77.2478 78.7155 79.9819C76.1325 81.6141 72.998 81.0125 70.1843 80.3875C68.2488 81.9641 65.2016 85.294 63.3402 80.7428C61.0461 75.1341 67.8323 49.3957 73.9884 46.9245C76.2137 46.0314 78.1255 47.3446 78.8755 49.4675C80.9995 55.4794 76.8617 69.4117 73.54 75.3684C73.0581 76.2323 72.5046 77.0666 72.0749 77.9572C80.0565 80.8719 83.1646 67.3055 82.2586 62.1487C81.9416 60.3457 80.162 56.0567 80.312 55.1131C80.6378 53.0634 83.3493 51.5107 84.9443 50.3528C85.632 48.7982 85.7502 46.3783 85.7934 44.6685C86.0859 33.099 80.5235 22.0769 72.6335 13.8308C59.3869 0.176251 38.128 -0.862143 23.7414 11.8335C15.1452 19.4197 9.15488 30.6628 8.49045 42.1634C8.39269 43.8559 8.46345 49.2092 9.59284 50.3991C11.0731 51.9583 13.0047 53.2254 14.6952 51.5718C15.3829 47.5576 18.3818 44.4681 21.8596 48.2187C26.9295 53.6861 31.7531 70.9876 31.4098 78.4198C31.3144 80.4874 30.251 83.0822 27.7709 82.904C26.2108 82.7919 25.222 81.5262 24.258 80.457C23.007 80.7644 21.7286 81.1206 20.4413 81.23C12.7043 81.8866 9.7381 72.0921 9.2623 66.0282C-2.92865 66.0851 -2.2017 52.484 6.30913 50.3338ZM18.6146 49.4699C17.6403 50.4841 17.6604 51.8505 17.69 53.1739C17.8453 60.1598 21.7207 75.4271 27.8817 79.956C28.0734 80.0057 28.0723 80.0291 28.2404 79.9313C30.5873 76.1018 23.004 50.5779 18.6146 49.4699ZM75.2382 49.5405C70.29 51.7589 64.3202 76.3935 66.2583 79.989C66.441 79.8832 66.6276 79.7811 66.8062 79.6685C72.0676 75.4629 75.6011 62.9179 76.2813 56.7078C76.4326 55.3263 77.1363 49.9015 75.2382 49.5405ZM86.4927 53.1765C85.1566 53.4886 83.9665 54.2498 83.3446 55.49C84.0504 58.3579 84.896 60.1543 85.3795 63.2793C86.2737 63.2846 87.0702 63.2267 87.9225 62.9464C94.1091 60.5293 91.0055 52.7611 86.4927 53.1765ZM6.71398 53.2982C1.46824 54.4167 1.68048 62.754 7.75723 63.2061C8.15341 63.2089 8.54919 63.2163 8.94477 63.1894C9.62713 60.5026 10.8689 57.3995 11.3705 54.9353C10.1634 53.8851 8.33632 53.1335 6.71398 53.2982ZM14.9327 55.4113C11.9876 60.5987 11.1832 63.9813 12.8665 70.0438C13.6431 72.8406 15.6111 78.3382 19.226 78.3333C20.3012 78.3028 21.17 78.1215 22.1754 77.7373C18.5665 72.5367 16.5458 65.4556 15.3322 59.3595C15.0981 58.1828 15.1639 56.263 14.9327 55.4113Z" fill="white"/>
<path d="M49.4866 8.50822C36.0936 7.95251 26.2385 13.5184 19.2472 25.1906C17.038 28.879 14.8737 33.1945 14.4144 37.5381C14.2975 38.6422 14.5863 40.559 13.0416 40.7901C10.1131 41.2278 11.8811 35.1647 12.2327 33.9394C16.5922 18.7453 28.5773 6.51309 45.0296 5.5856C56.5567 4.74488 67.157 9.8438 74.2193 18.8205C78.3105 24.0209 82.5419 32.057 82.9002 38.7769C83.0388 41.3752 80.154 41.9829 79.9132 38.5176C79.7577 36.2779 79.2109 34.3047 78.4154 32.2046C73.7271 19.8285 63.4385 9.15383 49.4866 8.50822Z" fill="white"/>
</svg>
