<svg width="161" height="54" fill="none" xmlns="http://www.w3.org/2000/svg"><path fill-rule="evenodd" clip-rule="evenodd" d="M3.366 10.182H71.72c-.771.778-1.49 1.61-2.15 2.488H5.886c-1.791 0-3.256 1.001-3.256 2.226V40.12c0 1.225 1.465 2.226 3.256 2.226H70.38c.744.887 1.55 1.718 2.413 2.488H3.366C1.514 44.834 0 43.664 0 42.235V12.781c0-1.43 1.514-2.6 3.366-2.6zm102.294 0h51.624c1.851 0 3.365 1.17 3.365 2.599v29.454c0 1.43-1.514 2.599-3.365 2.599h-52.695a24.083 24.083 0 002.413-2.488h47.763c1.79 0 3.255-1.001 3.255-2.226V14.896c0-1.225-1.465-2.226-3.255-2.226H107.81a24.165 24.165 0 00-2.15-2.488z" fill="#F08143"/><path fill-rule="evenodd" clip-rule="evenodd" d="M88.693 0c9.644 0 18.108 5.06 22.883 12.67h-3.764c-4.36-5.807-11.301-9.564-19.119-9.564s-14.76 3.757-19.12 9.563H65.81C70.584 5.06 79.048 0 88.693 0zm22.214 42.346C106.033 49.386 97.901 54 88.693 54c-9.21 0-17.341-4.614-22.215-11.654h3.903c4.383 5.225 10.96 8.548 18.312 8.548s13.928-3.323 18.311-8.548h3.903z" fill="#F08143"/><path d="M127.979 15.855c-6.461 0-10.098 4.659-10.098 10.91 0 6.191 3.757 10.855 10.158 10.855 6.552 0 10.069-4.573 10.069-10.855 0-6.341-3.517-10.91-10.129-10.91zm-.03 2.465c4.869 0 6.973 4.177 6.973 8.505 0 4.96-2.825 8.415-6.913 8.415-4.087 0-6.942-3.486-6.942-8.535 0-5.02 2.825-8.385 6.882-8.385zm14.397-2.104v20.978h3.005V28.81h2.285c4.568 0 7.994-1.653 7.994-6.372 0-3.997-2.465-6.221-8.205-6.221h-5.079zm3.005 2.554h1.563c2.525 0 5.56.421 5.56 3.727 0 3.366-2.975 3.727-5.199 3.727h-1.924V18.77zm-38.133-.3c2.164 0 3.516.69 3.516 2.855 0 2.825-2.585 3.757-4.749 3.757h-.781v2.434h.932c3.065 0 5.079.902 5.079 3.697 0 2.254-1.743 3.696-4.418 3.696-1.503 0-3.667-.6-4.659-1.082l-.3 2.796c1.322.51 3.426.876 4.899.876 3.847 0 7.664-1.868 7.664-6.196 0-2.916-1.743-4.659-4.539-5.23v-.06c2.405-.45 3.937-2.284 3.937-5.049 0-3.456-2.764-5.02-6.461-5.02-1.322 0-3.577.422-4.749.842l.391 2.645c1.202-.51 3.156-.962 4.238-.962zM64.746 37.194h3.006V18.861h8.986v-2.645H64.746v20.978zm-2.769-20.978H58.64l-6.342 12.412h-.09l-6.161-12.412H42.53l8.085 15.508-.27.601c-.481 1.082-1.293 2.345-2.946 2.345-.45 0-1.172-.12-1.533-.301l-.18 2.705c.45.12 1.202.306 2.164.306 3.276 0 4.508-2.71 5.44-4.483l8.686-16.681zm-33.811 0v20.978h3.006V28.81h2.284c4.568 0 7.994-1.653 7.994-6.372 0-3.997-2.464-6.221-8.205-6.221h-5.079zm3.006 2.554h1.563c2.524 0 5.56.421 5.56 3.727 0 3.366-2.976 3.727-5.2 3.727h-1.923V18.77zm-10.761-2.554l-9.047 9.647v-9.647H8.36v20.978h3.005v-10.67l9.558 10.67h4.358l-10.459-11.09 9.618-9.888h-4.03z" fill="#0082C9"/><path fill-rule="evenodd" clip-rule="evenodd" d="M88.692 14.858c6.705 0 12.143 5.438 12.143 12.143 0 6.705-5.438 12.143-12.143 12.143-6.705 0-12.143-5.438-12.143-12.143 0-6.705 5.438-12.143 12.143-12.143zm0 2.62c5.258 0 9.522 4.264 9.522 9.522s-4.264 9.523-9.522 9.523c-5.259 0-9.523-4.265-9.523-9.523s4.264-9.522 9.523-9.522z" fill="#EA556F"/><path fill-rule="evenodd" clip-rule="evenodd" d="M86.755 25.608a2.384 2.384 0 110 4.767 2.384 2.384 0 010-4.767z" fill="#0082C9"/></svg>