<svg width="211" height="72" fill="none" xmlns="http://www.w3.org/2000/svg"><path fill-rule="evenodd" clip-rule="evenodd" d="M4.42 14.205H94.2a31.542 31.542 0 00-2.824 3.268H7.73c-2.352 0-4.276 1.315-4.276 2.923v33.13c0 1.61 1.924 2.924 4.276 2.924h84.708a31.612 31.612 0 003.17 3.268H4.42c-2.431 0-4.42-1.536-4.42-3.414V17.62c0-1.878 1.989-3.414 4.42-3.414zm134.356 0h67.803c2.432 0 4.421 1.536 4.421 3.414v38.685c0 1.878-1.989 3.414-4.421 3.414h-69.21a31.677 31.677 0 003.17-3.268h62.732c2.352 0 4.275-1.315 4.275-2.923V20.396c0-1.608-1.923-2.924-4.275-2.924h-61.672a31.584 31.584 0 00-2.823-3.267z" fill="#fff"/><path fill-rule="evenodd" clip-rule="evenodd" d="M116.492.832c12.667 0 23.783 6.646 30.055 16.64h-4.944c-5.726-7.626-14.843-12.56-25.111-12.56-10.269 0-19.386 4.934-25.112 12.56h-4.945C92.708 7.478 103.824.832 116.492.832zm29.176 55.618c-6.401 9.247-17.082 15.307-29.176 15.307-12.096 0-22.776-6.06-29.177-15.307h5.126c5.757 6.862 14.395 11.227 24.051 11.227 9.656 0 18.293-4.365 24.05-11.227h5.126z" fill="#fff"/><path d="M168.092 21.656c-8.487 0-13.263 6.12-13.263 14.33 0 8.132 4.934 14.256 13.342 14.256 8.605 0 13.224-6.006 13.224-14.257 0-8.328-4.619-14.329-13.303-14.329zm-.039 3.237c6.395 0 9.158 5.488 9.158 11.172 0 6.513-3.711 11.053-9.079 11.053-5.369 0-9.119-4.58-9.119-11.211 0-6.592 3.711-11.014 9.04-11.014zm18.905-2.763v27.554h3.948V38.671h3c6 0 10.5-2.171 10.5-8.37 0-5.249-3.237-8.17-10.776-8.17h-6.672zm3.948 3.356h2.053c3.316 0 7.303.553 7.303 4.895 0 4.421-3.908 4.895-6.829 4.895h-2.527v-9.79zm-50.088-.396c2.842 0 4.619.907 4.619 3.75 0 3.71-3.395 4.934-6.237 4.934h-1.026v3.197h1.223c4.027 0 6.671 1.185 6.671 4.855 0 2.961-2.289 4.856-5.802 4.856-1.974 0-4.816-.79-6.119-1.421l-.395 3.67c1.737.672 4.5 1.153 6.435 1.153 5.052 0 10.066-2.455 10.066-8.14 0-3.828-2.29-6.117-5.961-6.867v-.08c3.158-.592 5.171-3 5.171-6.631 0-4.54-3.631-6.593-8.487-6.593-1.737 0-4.697.553-6.237 1.106l.513 3.474c1.579-.672 4.145-1.264 5.566-1.264zM85.04 49.684h3.947v-24.08h11.803v-3.473H85.04v27.553zM81.4 22.13h-4.38l-8.33 16.304h-.118L60.48 22.131h-4.62L66.48 42.5l-.356.79c-.632 1.42-1.698 3.078-3.869 3.078-.592 0-1.54-.158-2.013-.395l-.237 3.553c.592.158 1.58.402 2.842.402 4.303 0 5.921-3.56 7.145-5.888l11.409-21.91zm-44.407 0v27.554h3.947V38.671h3c6 0 10.5-2.171 10.5-8.37 0-5.249-3.236-8.17-10.776-8.17h-6.671zm3.947 3.356h2.053c3.316 0 7.303.553 7.303 4.895 0 4.421-3.908 4.895-6.829 4.895H40.94v-9.79zM26.808 22.13L14.926 34.803V22.131h-3.947v27.553h3.947V35.671l12.553 14.013h5.724L19.466 35.118l12.632-12.987h-5.29z" fill="#fff"/><path fill-rule="evenodd" clip-rule="evenodd" d="M116.489 20.346c8.806 0 15.948 7.142 15.948 15.948 0 8.807-7.142 15.95-15.948 15.95-8.807 0-15.949-7.143-15.949-15.95 0-8.806 7.142-15.948 15.949-15.948zm-.001 3.441c6.906 0 12.507 5.6 12.507 12.507 0 6.906-5.601 12.507-12.507 12.507-6.907 0-12.507-5.6-12.507-12.507 0-6.906 5.6-12.507 12.507-12.507z" fill="#fff"/><path fill-rule="evenodd" clip-rule="evenodd" d="M113.944 34.467a3.131 3.131 0 110 6.262 3.131 3.131 0 010-6.262z" fill="#fff"/></svg>