<svg width="27" height="27" fill="none" xmlns="http://www.w3.org/2000/svg"><path fill-rule="evenodd" clip-rule="evenodd" d="M6.111 13.357c3.936-1.714 6.56-2.845 7.873-3.39 3.75-1.56 4.528-1.831 5.036-1.84.112-.002.361.026.523.157.137.11.174.26.192.366.018.105.04.344.023.531-.203 2.135-1.082 7.315-1.53 9.706-.189 1.011-.561 1.35-.922 1.384-.784.072-1.38-.518-2.139-1.016-1.188-.779-1.86-1.264-3.012-2.024-1.333-.878-.47-1.36.29-2.15.2-.206 3.653-3.348 3.72-3.633.009-.036.016-.169-.063-.239-.079-.07-.195-.046-.28-.027-.118.027-2.016 1.282-5.693 3.764-.54.37-1.027.55-1.465.54-.482-.01-1.409-.272-2.098-.496-.846-.275-1.517-.42-1.459-.887.03-.243.365-.491 1.004-.746z" fill="#fff"/></svg>