<svg width="34" height="34" fill="none" xmlns="http://www.w3.org/2000/svg"><circle cx="17" cy="17" r="17" fill="#fff"/><path fill-rule="evenodd" clip-rule="evenodd" d="M9.11 16.357c3.936-1.714 6.56-2.845 7.874-3.39 3.749-1.56 4.528-1.831 5.036-1.84.111-.002.361.026.523.157.136.11.174.26.192.366.018.105.04.344.023.531-.204 2.135-1.083 7.315-1.53 9.706-.19 1.011-.562 1.35-.923 1.384-.784.072-1.379-.518-2.138-1.016-1.188-.779-1.86-1.264-3.013-2.024-1.333-.878-.469-1.36.29-2.15.2-.206 3.654-3.348 3.72-3.633.01-.036.017-.169-.062-.239-.08-.07-.196-.046-.28-.027-.119.027-2.017 1.282-5.694 3.764-.539.37-1.027.55-1.464.54-.482-.01-1.41-.272-2.099-.496-.845-.275-1.517-.42-1.458-.887.03-.243.365-.491 1.004-.746z" fill="#009BF0"/></svg>