<svg width="26" height="26" viewBox="0 0 26 26" fill="none" xmlns="http://www.w3.org/2000/svg">
<path d="M22.9786 5.05078C23.5879 5.84921 24.1038 6.71663 24.5157 7.63563L12.8308 16.3651L7.94739 13.2627V9.53035L12.8308 12.6328L22.9786 5.05078Z" fill="white"/>
<path d="M2.96352 12.9998C2.96352 12.8323 2.96755 12.6659 2.97561 12.5005L0.0161179 12.3535C0.00604477 12.5679 3.57641e-06 12.7843 3.57641e-06 13.0028C-0.00125561 14.7095 0.329997 16.3997 0.974768 17.9763C1.61953 19.5531 2.56512 20.9852 3.75729 22.1906L5.85653 20.0642C4.93885 19.1379 4.21084 18.0369 3.71436 16.8246C3.21788 15.6122 2.96271 14.3123 2.96352 12.9998Z" fill="white"/>
<path d="M12.8282 3.00332C12.9934 3.00332 13.1575 3.00945 13.3207 3.01762L13.4688 0.0172752C13.2566 0.0070665 13.043 0.00196277 12.8282 0.00196277C11.1433 -0.000119562 9.47466 0.335107 7.91802 0.988393C6.36137 1.64168 4.94739 2.60016 3.75726 3.8088L5.85651 5.93629C6.77053 5.00595 7.857 4.26788 9.05346 3.76454C10.2499 3.2612 11.5327 3.0025 12.8282 3.00332Z" fill="white"/>
<path d="M12.8282 22.9973C12.663 22.9973 12.4988 22.9973 12.3347 22.9841L12.1866 25.9834C12.3995 25.9943 12.6134 25.9998 12.8282 25.9998C14.5124 26.0015 16.1802 25.6661 17.736 25.0126C19.2918 24.3591 20.7049 23.4005 21.8941 22.1919L19.7989 20.0654C18.8847 20.9953 17.7984 21.7329 16.6021 22.2361C15.4059 22.7392 14.1234 22.998 12.8282 22.9973Z" fill="white"/>
<path d="M18.3888 4.74707L20.8829 2.88398C18.6033 1.01319 15.7577 -0.0051931 12.8243 1.99146e-05V3.0024C14.8107 2.99991 16.7509 3.60826 18.3888 4.74707Z" fill="white"/>
<path d="M25.6554 13.0005C25.657 12.2195 25.5896 11.4398 25.4539 10.6709L22.6929 12.7331C22.6929 12.8219 22.6929 12.9107 22.6929 13.0005C22.6936 14.3974 22.4047 15.7788 21.8449 17.0552C21.2851 18.3316 20.4669 19.4746 19.4433 20.41L21.4348 22.6407C22.7655 21.4231 23.8289 19.9359 24.556 18.2752C25.2831 16.6144 25.6577 14.8174 25.6554 13.0005Z" fill="white"/>
<path d="M12.8283 22.9974C11.4499 22.9979 10.0867 22.705 8.82708 22.1377C7.56749 21.5704 6.43949 20.7413 5.51613 19.7041L3.31616 21.7213C4.51734 23.0702 5.98485 24.148 7.62352 24.8851C9.26219 25.6221 11.0354 26.0019 12.8283 25.9998V22.9974Z" fill="white"/>
<path d="M6.21313 5.58998L4.22268 3.35938C2.89158 4.57664 1.82781 6.06386 1.10035 7.72458C0.372903 9.38529 -0.00198328 11.1824 7.89045e-06 12.9994H2.96353C2.96292 11.6027 3.25188 10.2213 3.81168 8.94485C4.37148 7.66847 5.18963 6.52548 6.21313 5.58998Z" fill="white"/>
</svg>
