<svg width="478" height="688" fill="none" xmlns="http://www.w3.org/2000/svg"><path d="M312.777-63.567c-35.573 123.921-259.5 334.956-2.17 320.083 78.578 9.958 133.461 107.172 83.31 182.733-11.316 21.539-33.011 42.268-29.056 70.014 72.642-8.21 143.521-49.836 209.858-83.38 26.149-9.464 163.315-123.953 142.097-33.625-48.763 70.159-402.962 299.263-416.452 112.064-3.985-46.067 19.466-75.786 33.579-115.049 24.173-72.281-126.472-30.444-159.536-63.742-96.995-55.791-71.081-194.561-16.3-271.453 29.905-37.727 88.783-189.932 139.688-162.362 12.97 8.661 21.639 28.299 15.069 44.704l-.087.013z" fill="#0065B2"/></svg>