<svg width="312" height="468" fill="none" xmlns="http://www.w3.org/2000/svg"><path d="M222.214-64.096c-25.199 87.783-183.822 237.274-1.537 226.739 55.663 7.053 94.541 75.917 59.014 129.442-8.015 15.258-23.383 29.942-20.582 49.596 51.458-5.816 101.666-35.303 148.657-59.064 18.524-6.704 115.688-87.805 100.658-23.819-34.542 49.698-285.447 211.99-295.002 79.383-2.824-32.633 13.788-53.685 23.786-81.498 17.123-51.202-89.589-21.565-113.011-45.153-68.708-39.52-50.352-137.821-11.546-192.289 21.184-26.725 62.891-134.543 98.951-115.013 9.187 6.136 15.328 20.046 10.674 31.667l-.062.01z" fill="#0065B2"/></svg>