<svg width="201" height="68" viewBox="0 0 201 68" fill="none" xmlns="http://www.w3.org/2000/svg">
<path fill-rule="evenodd" clip-rule="evenodd" d="M4.20437 12.7185H89.5906C88.6267 13.6909 87.7287 14.7289 86.9051 15.826H7.35105C5.11399 15.826 3.2841 17.077 3.2841 18.6065V50.1162C3.2841 51.6457 5.11399 52.8967 7.35105 52.8967H87.9139C88.843 54.0037 89.8504 55.0424 90.9285 56.0042H4.20437C1.89153 56.0042 0 54.5435 0 52.7576V15.9651C0 14.1794 1.89153 12.7185 4.20437 12.7185ZM131.985 12.7185H196.47C198.783 12.7185 200.675 14.1794 200.675 15.9651V52.7576C200.675 54.5435 198.783 56.0042 196.47 56.0042H130.647C131.725 55.0424 132.733 54.0037 133.661 52.8967H193.324C195.561 52.8967 197.39 51.6457 197.39 50.1162V18.6065C197.39 17.077 195.561 15.826 193.324 15.826H134.67C133.847 14.7289 132.949 13.6909 131.985 12.7185Z" fill="white"/>
<path fill-rule="evenodd" clip-rule="evenodd" d="M110.791 0C122.838 0 133.41 6.32117 139.376 15.8261H134.673C129.228 8.57307 120.557 3.88017 110.791 3.88017C101.025 3.88017 92.3536 8.57307 86.9079 15.8261H82.2051C88.1707 6.32117 98.7431 0 110.791 0ZM138.539 52.8968C132.452 61.6909 122.294 67.454 110.791 67.454C99.2875 67.454 89.1293 61.6909 83.0417 52.8968H87.9167C93.3923 59.423 101.607 63.5741 110.791 63.5741C119.974 63.5741 128.189 59.423 133.664 52.8968H138.539Z" fill="white"/>
<path d="M159.868 19.8047C151.797 19.8047 147.254 25.6241 147.254 33.4327C147.254 41.1668 151.947 46.992 159.944 46.992C168.128 46.992 172.52 41.2794 172.52 33.4327C172.52 25.5115 168.128 19.8047 159.868 19.8047ZM159.831 22.8832C165.913 22.8832 168.541 28.102 168.541 33.508C168.541 39.7026 165.012 44.0201 159.906 44.0201C154.8 44.0201 151.233 39.6648 151.233 33.3578C151.233 27.0883 154.763 22.8832 159.831 22.8832Z" fill="white"/>
<path d="M177.809 20.2563V46.4615H181.563V35.9869H184.416C190.123 35.9869 194.403 33.9221 194.403 28.0276C194.403 23.0348 191.324 20.2563 184.153 20.2563H177.809ZM181.563 23.4475H183.515C186.669 23.4475 190.461 23.9729 190.461 28.1031C190.461 32.3075 186.744 32.758 183.966 32.758H181.563V23.4475Z" fill="white"/>
<path d="M133.927 23.0719C136.63 23.0719 138.32 23.9358 138.32 26.6389C138.32 30.1675 135.091 31.3316 132.388 31.3316H131.412V34.3726H132.575C136.405 34.3726 138.92 35.4989 138.92 38.9902C138.92 41.8059 136.743 43.608 133.401 43.608C131.524 43.608 128.821 42.8573 127.582 42.2564L127.207 45.7479C128.859 46.3864 131.487 46.8432 133.327 46.8432C138.132 46.8432 142.9 44.509 142.9 39.1028C142.9 35.4611 140.722 33.2838 137.231 32.5705V32.4954C140.234 31.9323 142.149 29.6421 142.149 26.1884C142.149 21.8707 138.695 19.9185 134.077 19.9185C132.426 19.9185 129.61 20.4443 128.146 20.9697L128.633 24.2737C130.135 23.635 132.575 23.0719 133.927 23.0719Z" fill="white"/>
<path d="M80.8789 46.4615H84.6335V23.5601H95.8584V20.2563H80.8789V46.4615Z" fill="white"/>
<path d="M77.4154 20.2563H73.2482L65.3265 35.7617H65.2139L57.5176 20.2563H53.125L63.2244 39.6284L62.8865 40.3795C62.2855 41.7311 61.2719 43.3079 59.2068 43.3079C58.6438 43.3079 57.7428 43.1575 57.2923 42.9322L57.067 46.3111C57.6302 46.4615 58.5688 46.693 59.7699 46.693C63.8624 46.693 65.4014 43.3079 66.5655 41.0931L77.4154 20.2563Z" fill="white"/>
<path d="M35.1836 20.2563V46.4615H38.9379V35.9869H41.7914C47.4978 35.9869 51.7777 33.9221 51.7777 28.0276C51.7777 23.0348 48.6989 20.2563 41.5284 20.2563H35.1836ZM38.9379 23.4475H40.8904C44.044 23.4475 47.8357 23.9729 47.8357 28.1031C47.8357 32.3075 44.1189 32.758 41.3409 32.758H38.9379V23.4475Z" fill="white"/>
<path d="M25.4938 20.2563L14.1933 32.3075V20.2563H10.4395V46.4615H14.1933V33.1337L26.1325 46.4615H31.5758L18.511 32.6081L30.5248 20.2563H25.4938Z" fill="white"/>
<path fill-rule="evenodd" clip-rule="evenodd" d="M110.794 18.5591C119.169 18.5591 125.962 25.3521 125.962 33.7275C125.962 42.1031 119.169 48.8961 110.794 48.8961C102.418 48.8961 95.625 42.1031 95.625 33.7275C95.625 25.3521 102.418 18.5591 110.794 18.5591ZM110.793 21.8321C117.361 21.8321 122.688 27.1588 122.688 33.7272C122.688 40.2952 117.361 45.6219 110.793 45.6219C104.224 45.6219 98.8982 40.2952 98.8982 33.7272C98.8982 27.1588 104.224 21.8321 110.793 21.8321Z" fill="white"/>
<path fill-rule="evenodd" clip-rule="evenodd" d="M108.373 31.9878C110.017 31.9878 111.35 33.321 111.35 34.9655C111.35 36.6105 110.017 37.9437 108.373 37.9437C106.728 37.9437 105.395 36.6105 105.395 34.9655C105.395 33.321 106.728 31.9878 108.373 31.9878Z" fill="white"/>
</svg>
