<svg width="25" height="25" viewBox="0 0 25 25" fill="none" xmlns="http://www.w3.org/2000/svg">
<g clip-path="url(#clip0_3920_14855)">
<path d="M12.5 25C19.4036 25 25 19.4036 25 12.5C25 5.59644 19.4036 0 12.5 0C5.59644 0 0 5.59644 0 12.5C0 19.4036 5.59644 25 12.5 25Z" fill="white"/>
<path fill-rule="evenodd" clip-rule="evenodd" d="M5.65782 12.3679C9.30182 10.7803 11.7317 9.73365 12.9475 9.22795C16.4189 7.78409 17.1402 7.53327 17.6104 7.52499C17.7138 7.52317 17.945 7.5488 18.0948 7.67032C18.2212 7.77293 18.256 7.91155 18.2727 8.00883C18.2893 8.10612 18.3101 8.32775 18.2936 8.50092C18.1055 10.4775 17.2915 15.274 16.8774 17.4878C16.7022 18.4245 16.3571 18.7386 16.0231 18.7693C15.2972 18.8361 14.746 18.2896 14.0429 17.8287C12.9428 17.1076 12.3213 16.6586 11.2534 15.9549C10.0192 15.1416 10.8193 14.6946 11.5226 13.9641C11.7067 13.7729 14.905 10.8638 14.9669 10.5999C14.9746 10.5669 14.9818 10.4439 14.9087 10.3789C14.8356 10.3139 14.7278 10.3362 14.6499 10.3538C14.5396 10.3789 12.7821 11.5405 9.37735 13.8388C8.87848 14.1814 8.42662 14.3483 8.02177 14.3395C7.57546 14.3299 6.71693 14.0872 6.0787 13.8797C5.29589 13.6252 4.67372 13.4907 4.7279 13.0586C4.75612 12.8335 5.06609 12.6033 5.65782 12.3679Z" fill="#009BF0"/>
</g>
<defs>
<clipPath id="clip0_3920_14855">
<rect width="25" height="25" fill="white"/>
</clipPath>
</defs>
</svg>
