<svg width="41" height="41" viewBox="0 0 41 41" fill="none" xmlns="http://www.w3.org/2000/svg">
<path d="M20.5 0C9.17802 0 0 9.17802 0 20.5C0 31.822 9.17802 41 20.5 41C31.822 41 41 31.822 41 20.5C41 9.17802 31.822 0 20.5 0ZM12.4516 14.0937H28.5099C29.362 14.0937 28.9221 15.1871 28.4587 15.4668C27.9953 15.7444 21.5827 19.6245 21.3414 19.7676C21.1001 19.9106 20.7926 19.9811 20.4808 19.9811C20.1808 19.9872 19.8845 19.9135 19.6223 19.7676L12.5029 15.4668C12.0395 15.1871 11.6017 14.0937 12.4516 14.0937ZM29.0417 25.8385C29.0417 26.287 28.5035 26.9062 28.0935 26.9062H12.9065C12.4965 26.9062 11.9583 26.287 11.9583 25.8385V18.0507C11.9583 17.8542 11.9541 17.6001 12.3256 17.8158L19.6223 22.1186C19.8799 22.2761 20.1795 22.3506 20.4808 22.3322C20.7926 22.3322 21.0189 22.3087 21.3414 22.1186L28.6744 17.8179C29.0459 17.6001 29.0417 17.8564 29.0417 18.0528V25.8385Z" fill="#009BF0"/>
</svg>
