<svg width="307" height="440" fill="none" xmlns="http://www.w3.org/2000/svg"><path d="M377.816 392.369c-95.005-25.156-342.763 23.572-198.175-115.266 35.226-47.672 4.27-113.814-68.638-113.198-19.215-1.496-43.393 3.122-58.39-9.192 43.285-37.732 106.212-62.316 161.774-87.295C233.975 56.203 376.642 20.978 309.872 0 241.02 1.803-86.425 116.981 21.709 192.666c26.26 18.998 56.896 16.668 88.493 23.044 57.216 12.754-47.822 81.975-44.727 112.627-16.705 74.674 82.355 110.648 158.519 107.921 38.963-3.034 163.643 19.351 173.463-19.218 1.495-10.423-6.031-22.428-19.588-24.715l-.053.044z" fill="#FFC93A"/></svg>