<svg width="106" height="51" fill="none" xmlns="http://www.w3.org/2000/svg"><path d="M81.203 5.019C81.92 2.879 83.346.34 85.805.005c4.04-.227 5.633 6.74 6.434 9.604 6.819-2.298 5.66 2.457 6.243 6.753 4.899.582 9.214 5.691 6.853 10.618-1.2 2.503-3.649 4.156-6.196 5.058-.148 2.294.199 4.426.549 6.676-1.818 1.473-3.809 2.14-6.14 1.524-.87 7.364-6.586 13.037-10.437 4.127-7.768 5.6-8.295-10.704-8.476-14.585-2.591.056-5.189.02-7.78.02l-17.975.002c-1.012.007-1.986.239-2.996.247l-7.92-.005c-1.62.003-3.264-.009-4.878.116-.308 4.303-.04 19.39-8.143 15.594-.772 2.343-2.58 4.666-5.29 4.499-3.473-.889-5.35-6.09-5.728-9.223-5.624-.165-7.02-1.572-7.053-7.202-8.831-.75-9.256-14.023-.664-15.636.003-1.403.07-2.838-.002-4.237-.023-.45-.353-.978-.174-1.4.855-2.022 5.234-1.634 6.79-.995.696-2.923 1.727-8.614 5.018-9.767 3.2-1.122 5.129 2.713 5.946 5.156 1.387-1.453 3.535-1.8 5.14-.473 3.154 2.61 3.639 11.232 3.978 15.156 11.272-.987 22.69-1.368 34.004-1.044 2.453.07 4.87.006 7.322.21-.069-3.423-.333-9.642.914-12.824.965-2.463 3.462-4.006 6.058-2.955zM85.72 2.6c-6.966 4.416-2.6 37.39.683 42.558.351.552.836 1.105 1.54 1.108 5.344-2.677 3.188-21.188 2.721-26.249C90.448 17.67 89.375 2.171 85.72 2.6zM18.6 4.134c-4.76 3.798-3.903 20.087-3.592 25.53.2 3.485 1.13 16.331 4.906 18.101 2.33.21 3.619-4.854 3.726-6.507.348-5.357-.77-11.793-.879-17.33-.05-2.61.158-20.022-4.16-19.794zm59.97 3.234c-1.811 1-1.46 3.935-1.551 5.685-.265 5.015-.416 29.995 3.339 29.787 2.245-1.264 1.338-2.466.932-4.95-1.314-8.05-2.271-16.473-1.715-24.643.111-1.645 1.3-6.004-1.004-5.879zm-52.081.84c-1.7 1.494-1.521 3.254-1.366 5.25.342 4.402.135 8.809.359 13.214.206 4.066.692 8.128.727 12.203.008.963-.16 3.545-.01 4.303.206 1.038 1.648.57 2.096-.005 3.466-6.153 2.368-25.121.47-31.973-.33-1.194-.816-2.897-2.276-2.992zm67.841 3.58c-.554.204-1.062.5-1.329 1.053-.36.747 1.131 17.331 1.173 19.383.037 1.84-.156 3.68-.114 5.518.352.094.706.206 1.065.26.654.097 1.517.252 1.56-.62.232-4.634-.27-10.173-.51-14.83l-.252-5.82c-.06-1.637.49-5.01-1.593-4.944zM8.755 13.45c.186 3.496.017 7.037.072 10.54.04 2.53.237 5.118.395 7.644.193 3.103-.462 7.464 4.117 6.835-.688-3.815-1.117-9.272-1.146-13.14l.012-7.024c.013-1.221.083-2.438.056-3.66-1.041-1.067-2.1-1.26-3.506-1.195zm89.929 5.535c-.222 2.842.407 7.207.401 10.435.912-.462 1.828-.938 2.583-1.639 3.275-3.233 1.183-8.513-2.984-8.796zM6.123 21.02c-3.804 1.226-4.883 6.044-2.006 8.88.733.656 1.423 1.045 2.393 1.26.015-.885-.239-9.893-.387-10.14zm49.013 2.031c-7.01-.023-14.959.492-21.953 1.255a97.293 97.293 0 00-.03 3.191c2.934.008 5.88.057 8.815-.004l10.356-.181c7.365.028 14.727-.173 22.093-.072-.032-1.242-.044-2.49-.127-3.73-1.528-.393-3.31-.229-4.886-.273-4.813-.136-9.453-.154-14.268-.186z" fill="#fff"/></svg>