<svg width="91" height="77" fill="none" xmlns="http://www.w3.org/2000/svg"><path d="M22.118 49.69c-2.989 4.108-8.26 9.14-13.434 9.528-2.496.188-5.08-.379-5.146-3.315-.049-2.114 8.372-5.431 5.102-11.716-.659-1.266-2.004-2.225-2.949-3.287-7.835-8.81-7.503-21.035.52-29.643C13.141 3.818 23.07.394 33.056.052c10.858-.588 22.947 3.829 29.786 12.405 8.734 10.953 6.09 24.195-4.64 32.64 4.31-.233 8.852-.084 13.257-.205 2.817-.077 5.842-.218 8.642-.233 1.812-.009 2.46 2.382.706 3.063-.818.318-13.18.472-15.082.473l-6.988-.002c-3.674-.005-4.159-.326-7.594 1.14-2.536 1.082-5.162 1.711-7.848 2.312-6.365 1.227-15.225.66-21.178-1.955zM33.29 3.185c-9.18.255-18.23 3.311-24.675 10.118-6.982 7.374-7.475 17.795-.611 25.416.955 1.06 2.185 2.016 2.953 3.213 2.496 3.893 1.515 8.99-1.57 12.26-.614.65-1.395 1.152-1.938 1.862l-.04.05c4.153.102 9.39-4.207 11.737-7.624 1.045-1.524 1.002-2.957 3.407-1.93 8.55 3.332 18.835 3.587 27.322-.143 10.806-4.749 18.644-15.544 13.382-27.32C58.343 8.09 44.785 2.601 33.29 3.185z" fill="#fff"/><path d="M47.152 14.622l-26.534.004c-.977.002-3.748.33-4.504-.346-.698-.624-.782-1.522-.107-2.194.83-.826 2.318-.615 3.39-.61l27.158.005c.956-.002 1.961-.083 2.91-.01 1.284.099 2.085 1.744 1.09 2.71-.734.714-2.442.452-3.403.44zm5.655 7.636c-2.332.038-4.676-.011-7.01-.011l-26.636-.003c-1.614 0-3.246.071-4.856.026-2.261-.065-2.498-2.569-.417-3.114 1.53-.136 3.358-.022 4.917-.02h25.61c2.712 0 5.444-.071 8.153.006 2.146.06 2.296 2.736.24 3.116zm-.22 7.278l-34.417.006c-1.028.001-3.857.303-4.718-.15-1.58-.83-.881-2.52.55-2.969 1.646-.122 3.372-.021 5.025-.02l25.18.001c1.389 0 8.082-.295 8.931.199 1.405.817.934 2.646-.551 2.933zm30.506 43.837c-2.798-4.263-4.159-6.016-2.357-11.528.729-2.228.805-1.743 2.368-3.097 3.74-3.24 5.467-8.94 3.926-13.65-1.971-6.022-7.447-10.495-13.266-12.65-.955-.353-2.515-.65-2.808-1.806-.233-.92.425-1.683 1.295-1.869 1.724-.076 6.16 2.245 7.78 3.25 10.392 6.439 15.144 19.368 5.442 28.735-1.485 1.434-2.147 2.142-2.332 4.32-.432 5.093 3.82 6.585 4.48 9.176-.647 2.992-5.037 2.614-7.108 1.629-3.601-1.713-6.732-6.354-8.052-10.058-9.687 2.218-24.74.126-32.438-5.948-.937-.796-3.597-2.828-1.457-4.061 1.092-.63 1.886.288 2.638.941 7.241 6.285 20.122 7.694 29.487 6.216 4.29-.678 3.41-1.066 5.249 3 1.385 3.061 3.755 6.528 7.153 7.4zM50.23 37.048c-1.485.186-3.09.064-4.591.063l-23.528-.002c-1.753-.005-7.14.61-7.602-1.163-.272-1.043.492-1.728 1.43-1.944 1.618-.1 3.284-.015 4.908-.015l22.517.002c1.325 0 6.621-.306 7.587.247 1.341.767.814 2.503-.72 2.812z" fill="#fff"/><path d="M80.755 55.508c-1.753.447-6.012.182-7.92.181l-22.176-.002c-1.387-.002-2.793.055-4.177.02-2.073-.054-2.516-2.498-.635-3.196 1.395-.056 2.825.043 4.224.044l28.489-.003c.667-.003 2.105-.237 2.673.163 1.351.954.889 2.252-.478 2.793z" fill="#fff"/></svg>