<svg width="93" height="88" fill="none" xmlns="http://www.w3.org/2000/svg"><path d="M41.078 61.181c-4.917-.04-11.343-1.722-15.227-4.882-2.385-1.94-1.145-1.502-4.197-1.752C12.53 53.797.88 45.417.063 35.737c-.435-5.153 1.424-8.615 4.24-12.674 1.358-1.96 1.183-1.288 2.173-3.646 2.135-5.082 7.356-9.15 12.611-10.448 4.8-1.186 4.074-.834 7.872-4.185 3.192-2.816 6.943-4.28 11.158-4.65 6.406-.915 8.057 3.042 12.334 5.973 1.446-.961 2.425-2.502 3.744-3.617 4.64-3.924 13.158-2.025 17.357 1.695 2.487 2.204 1.556 2.262 4.8 3.664 4.37 1.888 6.384 7.141 7.714 11.343 1.607 5.077 1.504 3.48 4.806 7.462 3.26 3.931 4.123 9.228 3.66 14.197-.439 4.703-2.338 7.492-5.872 10.427.489 2.239.105 3.323-1.213 5.267-4.213 6.213-10.503 9.115-17.58 10.489-1.242 5.101-1.008 11.672-1.002 16.96.005 4.093-2.996 3.663-6.16 3.64-7.334.026-5.652-3.058-7.215-9.232-2.242-8.85-8.67-10.58-12.412-17.22zm-2.688-57.8c-4.51.347-7.454 2.117-10.612 5.191 1.307.898 2.728 1.874 3.77 3.077 5.326-.234 8.04 1.584 9.569 6.608.32 1.053.764 2.336-.145 3.227-1.96 1.92-2.832-1.386-3.129-2.558-.993-3.928-4.256-5.224-7.34-2.574-1.433 1.23-2.678 2.866-3.594 4.52-.614 1.11-2.024 4.296-3.819 2.217-1.712-1.985 4.315-8.373 5.656-9.51-2.813-2.766-3.217-2.869-6.752-1.984C16.923 12.865 9 16.945 9.04 23.07c.023 3.505 3.191 6.065 6.37 6.788 4.386.997 7.39 3.714 7.475 8.564.125 7.155-4.325 6.085-4.203 3.982.04-.689.463-1.412.673-2.067 1.145-3.58-.929-6.272-4.344-7.122-3.143-.854-6.183-2.406-7.862-5.325-.335-.582-.592-1.253-.969-1.803-2.224 3.596-3.647 6.617-2.583 11.07C5.4 44.688 14.831 50.498 22.231 51.174c.997.09 2.097.144 3.077-.103 2.139-.539 6.66-4.897 8.6-3.782.782.45.977 1.53.502 2.27-.348.543-5.615 3.46-6.618 4.11 6.234 4.376 14.866 6.445 20.74.506-.092-3.893-.024-7.803-.024-11.698l.002-29.433c.001-1.316.075-2.665.006-3.975-2.729-2.878-5.813-6.1-10.126-5.688zm21.605.298c-4.296.471-4.993 3.528-8.145 5.413-.15 3.569.067 7.141-.028 10.71-.016.603-.093 1.22-.056 1.823 4.494.46 7.677 2.585 11.185 5.21.7.522 1.78 1.176 2.323 1.84.97 1.182-.293 2.73-1.65 2.478-1.927-.359-6.3-5.225-11.83-6.235.094 2.185.036 4.39.037 6.578v19.171c0 1.217.357 4.7-.483 5.612-1.333 1.449-5.012 3.657-6.87 4.24 1.262 1.871 2.914 3.299 4.536 4.839 3.256 3.092 6.108 6.729 7.365 11.105.562 1.957.985 6.658 1.934 7.756 1.725.23 3.516.038 5.255.05-.127-4.996-.042-10.076.564-15.041.759-6.225 1.815-4.733 7.118-6.357 4.323-1.324 8.95-4.416 11.441-8.2a9.8 9.8 0 00.897-1.932c-.643-1.069-1.684-1.983-2.542-2.887-4.558 6.65-12.477 10.507-19.683 5.347-1.458-1.045-1.322-3.083.553-3.258 1.137-.106 3.748 2.509 7.017 2.367 2.849-.124 10.184-4.91 9.957-8.151-.28-3.993-4.802-3.812-4.928-5.85-.061-.995.755-1.782 1.729-1.798 1.336-.022 3.37 1.629 4.275 2.547 1.646 1.67 1.768 3.509 2.793 5.445.452.853 1.178 1.598 1.778 2.352 3.235-2.86 4.531-4.73 4.79-9.157.258-4.388-.543-8.266-3.563-11.625-3.308-3.68-3.449-3.222-4.918-8.021-.749-2.445-3.223-9.231-6.483-9.35-3.908-.143-5.456 2.782-7.61 3.651-2.295.926-4.516-3.266 4.033-6.347-2.695-2.714-6.921-4.936-10.791-4.325z" fill="#fff"/><path d="M67.507 43.626c-1.871.089-2.069-1.667-1.772-3.08 1.42-6.755 12.54-11.014 2.787-15.09-1.823-.762-1.8-2.663-.012-3.33 2.685-.238 6.241 3.027 7.037 5.44 1.999 6.057-5.487 8.431-6.418 13.303-.237 1.236-.216 2.327-1.622 2.757zm-26.637-.032c-7.962.608-10.833-3.254-13.37-10.174-.569-1.551-2.49-5.088.224-5.647 4.093-.094 1.113 11.85 11.326 12.507.691.045 1.703-.108 2.323.212 1.554.8 1.032 2.686-.502 3.102z" fill="#fff"/></svg>