<svg width="74" height="94" fill="none" xmlns="http://www.w3.org/2000/svg"><path d="M65.9 64.927c.303-.403.26-.86.233-1.05a3.722 3.722 0 00-.182-.687c-.076-.216-.17-.453-.263-.684l-.016-.04a33.08 33.08 0 01-.268-.688c-.188-.505-.342-1-.41-1.462-.067-.462-.035-.82.077-1.09l-.923-.385.923.385c.423-1.014 1.384-1.502 2.88-1.941.25-.074.533-.15.826-.23a30.43 30.43 0 001.472-.425c.773-.254 1.585-.595 2.264-1.154l.36-.296a.796.796 0 01-.047.113c-.52 1.01-1.644 1.415-3.267 1.804l-.358.084c-.65.152-1.362.32-1.98.556-.747.286-1.537.736-2.012 1.567l-.193.337.086.38c.182.805.486 1.553.744 2.187.272.67.48 1.186.576 1.658.09.441.059.748-.076 1.015-.145.284-.478.664-1.274 1.096h0l-.08.042c-.205.107-.605.315-.894.598-.414.405-.505.914-.475 1.333.027.384.159.764.285 1.077.106.264.24.553.369.832l.083.181c.16.347.316.696.45 1.058.268.727.423 1.44.34 2.14-.079.676-.389 1.433-1.216 2.245-2.404 2.358-5.583 2.311-8.733 2.19l-.196-.008c-1.43-.055-2.93-.114-4.15.2-.666.171-1.309.466-1.839.975-.536.514-.892 1.187-1.079 2.006l.975.223-.975-.223c-.298 1.308-.12 2.617.203 3.821.258.964.632 1.934.974 2.82.08.211.16.417.235.617.412 1.09.713 2.007.774 2.799.021.275.013.525-.03.755l-.244-1.025a13.919 13.919 0 00-.39-1.376l-.004-.01-.005-.011a93.27 93.27 0 00-.384-1.006c-.515-1.336-1.009-2.616-1.292-3.922-.346-1.59-.348-3.106.322-4.604.444-.992 1.117-1.523 1.996-1.835.935-.333 2.103-.416 3.503-.428.358-.003.732-.001 1.117 0 1.063.005 2.21.01 3.32-.082 1.535-.13 3.126-.452 4.577-1.279 1.256-.716 2.02-1.573 2.255-2.633.222-1.004-.09-1.962-.4-2.72-.128-.315-.253-.594-.37-.856-.206-.456-.388-.863-.528-1.326-.197-.654-.225-1.204-.002-1.745.113-.273.384-.523.861-.815.113-.07.227-.135.348-.205l.024-.014c.11-.063.23-.132.34-.2.21-.128.537-.337.764-.639zm0 0l-.8-.6.8.6s0 0 0 0zM25.103 90.293h0c-.181.014-.354.03-.52.044-.517.046-.97.087-1.426.06-.506-.03-.897-.142-1.216-.38l1.543-.059c3.499-.133 8.336-.272 13.033-.072 4.734.202 9.182.744 11.977 1.903l1.333.553a1.984 1.984 0 01-.145.197 1.244 1.244 0 01-.29.004c-.281-.022-.637-.103-1.049-.23a23.034 23.034 0 01-1.226-.428l-.03-.012c-.373-.138-.77-.285-1.09-.37-2.618-.691-6.556-1.088-10.436-1.268-3.896-.18-7.824-.144-10.458.058zm-2.549-1.785l-.72 1.422c-.06-.054-.062-.08-.063-.09v-.002c-.005-.041-.002-.145.07-.34.07-.193.18-.408.322-.659l.103-.178c.108-.19.233-.407.326-.596l-.897-.44.897.44c1.787-3.636 1.066-7.895-.491-11.691-1.569-3.824-4.068-7.389-6.18-9.805l-.753.658.753-.658c-.844-.965-1.806-1.796-2.714-2.58a76.49 76.49 0 01-.733-.64h0c-3.848-3.403-6.794-8.946-8.74-15.059C1.79 42.194.878 35.654 1.012 30.372c.393-15.576 9.974-28.3 25.851-29.313 6.4-.34 13.256.769 18.802 3.835l.482-.872-.482.872c2.768 1.53 5.63 4.282 8.169 7.447 2.529 3.155 4.678 6.647 6.041 9.583h0c1.61 3.463 2.177 6.58 2.844 10.242.112.616.227 1.248.35 1.9.936 4.94 2.87 9.302 5.564 13.462.297.459.726 1.028 1.175 1.626l.244.324c.55.734 1.13 1.523 1.631 2.313.505.797.896 1.545 1.098 2.194.077.25.12.462.137.643l-.108-.281c-.398-1.04-1.107-2.117-1.806-3.092a80.711 80.711 0 00-.86-1.172 38.047 38.047 0 01-1.127-1.566c-2.983-4.462-5.29-9.29-6.24-14.518-.098-.54-.192-1.083-.287-1.627C61.944 29.216 61.385 26 60 22.89c-2.205-4.948-6.903-11.73-11.065-15.26l-.638.751.638-.751C42.987 2.586 34.147.906 26.77 1.417 12.357 2.275 2.843 13.313 1.415 27.16c-.533 5.163.032 11.244 1.459 17.032C4.3 49.975 6.606 55.545 9.618 59.654c1.184 1.616 2.611 2.969 3.98 4.248l.194.181c1.32 1.232 2.574 2.403 3.64 3.756l.785-.62-.785.62c2.17 2.755 5.024 8.232 6.01 11.638l.96-.278-.96.278c.881 3.044.554 6.179-.889 9.03zm2.626 2.782c-.15.012-.304.026-.458.04-1.224.11-2.543.228-3.537-.638l3.995.598z" fill="#fff" stroke="#fff" stroke-width="2"/><path d="M29.4 52.967c1.257-.02 8.99-7.024 10.457-8.418.389-.37.798-.756 1.223-1.157 3.952-3.729 9.222-8.703 11.433-13.239L29.4 52.967zm0 0c-.76.012-3.297-2.16-4.462-3.157m4.462 3.157l-4.462-3.157m0 0a58.95 58.95 0 00-.386-.33l.386.33zm15.464-7.153c-.427.403-.84.793-1.234 1.168-.72.684-3.006 2.77-5.265 4.685-1.13.96-2.241 1.863-3.138 2.524-.451.332-.83.59-1.12.76a3.11 3.11 0 01-.263.14c-.11-.05-.26-.132-.45-.252a17.19 17.19 0 01-1.346-.975 62.162 62.162 0 01-1.983-1.645c-.162-.139-.3-.257-.408-.347-3.276-2.752-7.563-6.483-11.121-10.63-3.584-4.178-6.295-8.628-6.647-12.815h0c-.574-6.839 3.999-12.48 10.778-13.03l.029-.003.029-.004c4.342-.612 8.782 1.868 11.031 5.692l.91 1.546c-.034.032-.064.06-.092.084a8.142 8.142 0 01-.523-.683l-.25-.356c-.455-.653-1.042-1.493-1.779-2.312-1.801-2.004-4.57-3.973-9.026-3.674h0-.007c-3.04.226-5.83 1.399-7.903 3.812h0c-2.059 2.397-2.936 4.969-2.947 7.571-.01 2.578.83 5.118 2.085 7.494 2.503 4.735 6.79 9.049 10.006 12.062l.684-.73-.684.73c2.86 2.678 5.85 5.332 9.075 7.647l.608.437.59-.46c3.693-2.885 7.09-5.855 10.501-9.046l.005-.004c.224-.213.458-.433.7-.661 1.998-1.884 4.556-4.296 6.71-6.888 2.386-2.87 4.458-6.166 4.563-9.386.162-4.96-2.746-9.169-6.588-11.25-3.866-2.095-8.795-2.088-12.57 1.551-.361.35-.736.842-1.081 1.321a64.52 64.52 0 00-.508.718l-.03.044c-.18.256-.357.509-.533.751-.303.418-.58.775-.825 1.042l.677-1.442c1.525-3.253 4.736-5.132 8.286-5.51 3.555-.379 7.311.768 9.808 3.403 3.589 3.787 4.723 9.333 2.459 13.979h0c-1.156 2.37-3.232 4.926-5.572 7.403-1.878 1.988-3.878 3.875-5.64 5.539zm-11.13 9.324a.046.046 0 010 0zm.66-32.297l.004-.002-.004.002zm.343.028a.049.049 0 01.006.005.04.04 0 01-.006-.005z" fill="#fff" stroke="#fff" stroke-width="2"/><path d="M45.685 20.97l-.01-.017-.011-.017c-.745-1.09-1.506-1.797-2.358-2.057-.918-.28-1.683.03-2.22.367a7.43 7.43 0 00-.689.504l-.046.037a6.53 6.53 0 01-.435.332 1.435 1.435 0 01-.09.055.608.608 0 01-.155-.147c-.013-.02-.013-.027-.013-.03v-.001c0-.036.03-.21.288-.5.508-.573 1.441-1.08 2.134-1.197 1.655-.157 3.199 1.088 4 2.524.364.653.461 1.153.45 1.398a1.084 1.084 0 01-.103-.013 1.586 1.586 0 01-.2-.27 7.521 7.521 0 01-.282-.503 7.228 7.228 0 00-.26-.465zm-5.768-.736h0zm6.538 2l-.003-.003a.011.011 0 01.003.002zM40.91 35.006h0c-.298.256-3.533 2.713-6.786 5.152a588.57 588.57 0 01-4.427 3.292 114.203 114.203 0 01-1.575 1.139l-.005-.007c.198-.363.532-.666 1.041-1.13.05-.044.101-.091.154-.14l-.671-.736.671.736c2.053-1.872 4.172-3.348 6.313-4.84.891-.62 1.786-1.244 2.681-1.9 3.01-2.204 5.902-4.698 8.195-8.484a8.61 8.61 0 00.43-.835c.11-.232.2-.425.301-.603.126-.222.236-.366.345-.46a.16.16 0 01.019.014c.008.026.04.16-.05.487-.208.755-.865 1.838-1.794 3.055-1.822 2.385-4.32 4.811-4.842 5.26zm6.697-8.79l-.009-.01.01.01zm-20.894 5.726l-.691-1.073c-.473-.735-.966-1.524-1.358-2.395m2.049 3.468l-2.834-5.225.007-.005c.025.03.056.074.094.134.12.196.234.457.35.761l.094.251c.078.214.165.45.24.616m2.049 3.468l.876-.927c.172-.181.357-.38.554-.593.674-.727 1.483-1.6 2.352-2.39.556-.507 1.11-.955 1.637-1.29.49-.312.904-.493 1.234-.56l.051.01a.6.6 0 01-.132.198l.73.684-.73-.684c-.247.264-.695.588-1.308 1.025l-.04.028c-.556.396-1.217.866-1.736 1.363m-3.488 3.136l3.488-3.136m-5.537-.332l.912-.41m-.912.41l.912-.41m0 0c.216.48.469.939.738 1.387l2.758 1.989c-2.108 2.34-2.64 2.932-5.567-2.15-.462-.81-1.218-2.708-.185-3.403 1.158-.779 1.7.696 2.06 1.676.072.193.136.367.196.5zm4.625.742a35.776 35.776 0 00-1.887 1.98l-.41.453a8.35 8.35 0 01-.713.712c-.2.168-.306.215-.346.226a.003.003 0 00-.002.002c0 .001 0 .002-.024-.008-.062-.026-.205-.112-.439-.361-.476-.508-1.1-1.442-2.008-3.016-.195-.344-.444-.91-.535-1.423-.046-.255-.04-.436-.015-.546.02-.084.042-.098.055-.107l.002-.001 6.322 2.09z" fill="#fff" stroke="#fff" stroke-width="2"/></svg>