<svg width="95" height="84" fill="none" xmlns="http://www.w3.org/2000/svg"><path d="M6.31 50.334c-3.48-12.597 3.445-27.59 11.678-36.897C25.624 4.805 34.57.778 45.873.065c2.445-.241 6.64.236 9.073.707C76.086 4.857 92.09 29.519 88 50.404c8.35 1.57 9.087 15.911-2.815 15.652-.626 4.836-2.144 11.192-6.47 13.926-2.584 1.632-5.718 1.03-8.532.406-1.935 1.576-4.982 4.906-6.844.355-2.294-5.609 4.492-31.347 10.648-33.818 2.226-.894 4.138.42 4.888 2.543 2.123 6.011-2.014 19.944-5.336 25.9-.482.864-1.035 1.699-1.465 2.59 7.981 2.914 11.09-10.653 10.184-15.81-.317-1.802-2.097-6.091-1.947-7.035.326-2.05 3.037-3.602 4.632-4.76.688-1.555.806-3.975.85-5.684.292-11.57-5.27-22.592-13.16-30.838C59.386.176 38.127-.862 23.74 11.834 15.144 19.42 9.154 30.663 8.49 42.164c-.098 1.692-.028 7.045 1.102 8.235 1.48 1.56 3.412 2.826 5.102 1.173.688-4.014 3.687-7.104 7.165-3.353 5.07 5.467 9.893 22.769 9.55 30.2-.096 2.068-1.159 4.663-3.64 4.485-1.56-.112-2.548-1.378-3.512-2.447-1.251.307-2.53.664-3.817.773-7.737.657-10.703-9.138-11.179-15.202-12.19.057-11.464-13.544-2.953-15.694zm12.305-.864c-.975 1.014-.955 2.38-.925 3.704.155 6.986 4.03 22.253 10.192 26.782.191.05.19.073.358-.025 2.347-3.83-5.236-29.353-9.625-30.461zm56.623.07c-4.948 2.22-10.918 26.854-8.98 30.45.183-.106.37-.208.548-.32 5.262-4.206 8.795-16.751 9.475-22.961.152-1.382.855-6.806-1.043-7.167zm11.255 3.636c-1.336.313-2.526 1.074-3.148 2.314.705 2.868 1.551 4.664 2.034 7.79.895.005 1.691-.053 2.543-.334 6.187-2.417 3.084-10.185-1.43-9.77zm-79.779.122c-5.246 1.119-5.034 9.456 1.043 9.908.396.003.792.01 1.188-.017.682-2.686 1.924-5.79 2.425-8.254-1.207-1.05-3.034-1.802-4.656-1.637zm8.219 2.113c-2.945 5.188-3.75 8.57-2.066 14.633.776 2.797 2.744 8.294 6.359 8.29a8.44 8.44 0 002.95-.597c-3.61-5.2-5.63-12.281-6.844-18.377-.234-1.177-.168-3.097-.4-3.949z" fill="#fff"/><path d="M49.487 8.508c-13.393-.555-23.249 5.01-30.24 16.683-2.209 3.688-4.373 8.003-4.833 12.347-.117 1.104.172 3.021-1.372 3.252-2.929.438-1.16-5.625-.81-6.85C16.593 18.744 28.578 6.512 45.03 5.585c11.527-.841 22.127 4.258 29.19 13.234 4.09 5.2 8.322 13.237 8.68 19.957.139 2.598-2.746 3.206-2.987-.26-.155-2.24-.702-4.212-1.498-6.312-4.688-12.376-14.977-23.05-28.928-23.696z" fill="#fff"/></svg>