<svg width="161" height="54" viewBox="0 0 161 54" fill="none" xmlns="http://www.w3.org/2000/svg">
<path fill-rule="evenodd" clip-rule="evenodd" d="M3.36579 10.1819H71.7213C70.9497 10.9603 70.2308 11.7913 69.5715 12.6696H5.88485C4.09398 12.6696 2.62907 13.671 2.62907 14.8955V40.1204C2.62907 41.3449 4.09398 42.3463 5.88485 42.3463H70.3791C71.1228 43.2326 71.9293 44.0641 72.7924 44.834H3.36579C1.51425 44.834 0 43.6647 0 42.235V12.7809C0 11.3514 1.51425 10.1819 3.36579 10.1819ZM105.66 10.1819H157.284C159.135 10.1819 160.649 11.3514 160.649 12.7809V42.235C160.649 43.6647 159.135 44.834 157.284 44.834H104.589C105.452 44.0641 106.258 43.2326 107.002 42.3463H154.765C156.555 42.3463 158.02 41.3449 158.02 40.1204V14.8955C158.02 13.671 156.555 12.6696 154.765 12.6696H107.81C107.15 11.7913 106.431 10.9603 105.66 10.1819Z" fill="#F08143"/>
<path fill-rule="evenodd" clip-rule="evenodd" d="M88.6931 0C98.3372 0 106.801 5.06038 111.576 12.6695H107.812C103.452 6.86313 96.5107 3.10626 88.6931 3.10626C80.8747 3.10626 73.9329 6.86313 69.5734 12.6695H65.8086C70.5844 5.06038 79.048 0 88.6931 0ZM110.907 42.3463C106.033 49.3864 97.9014 54 88.6931 54C79.4838 54 71.3517 49.3864 66.4783 42.3463H70.381C74.7644 47.5708 81.3409 50.8939 88.6931 50.8939C96.0447 50.8939 102.621 47.5708 107.004 42.3463H110.907Z" fill="#F08143"/>
<path d="M127.979 15.855C121.518 15.855 117.881 20.5137 117.881 26.7648C117.881 32.9563 121.638 37.6197 128.039 37.6197C134.591 37.6197 138.108 33.0465 138.108 26.7648C138.108 20.4235 134.591 15.855 127.979 15.855ZM127.949 18.3195C132.818 18.3195 134.922 22.4973 134.922 26.8251C134.922 31.7842 132.097 35.2405 128.009 35.2405C123.922 35.2405 121.067 31.7539 121.067 26.7049C121.067 21.6858 123.892 18.3195 127.949 18.3195Z" fill="#0082C9"/>
<path d="M142.346 16.2158V37.1942H145.351V28.8089H147.636C152.204 28.8089 155.63 27.1559 155.63 22.437C155.63 18.4401 153.165 16.2158 147.425 16.2158H142.346ZM145.351 18.7705H146.914C149.439 18.7705 152.474 19.1911 152.474 22.4975C152.474 25.8633 149.499 26.224 147.275 26.224H145.351V18.7705Z" fill="#0082C9"/>
<path d="M107.218 18.4693C109.382 18.4693 110.734 19.1609 110.734 21.3249C110.734 24.1497 108.149 25.0816 105.985 25.0816H105.204V27.516H106.136C109.201 27.516 111.215 28.4177 111.215 31.2126C111.215 33.4667 109.472 34.9094 106.797 34.9094C105.294 34.9094 103.13 34.3084 102.138 33.8274L101.838 36.6225C103.16 37.1336 105.264 37.4993 106.737 37.4993C110.584 37.4993 114.401 35.6307 114.401 31.3028C114.401 28.3874 112.658 26.6444 109.862 26.0734V26.0133C112.267 25.5624 113.799 23.7291 113.799 20.9642C113.799 17.5077 111.035 15.9448 107.338 15.9448C106.016 15.9448 103.761 16.3658 102.589 16.7864L102.98 19.4314C104.182 18.9201 106.136 18.4693 107.218 18.4693Z" fill="#0082C9"/>
<path d="M64.7461 37.1942H67.7518V18.8607H76.7379V16.2158H64.7461V37.1942Z" fill="#0082C9"/>
<path d="M61.9769 16.2158H58.6408L52.2991 28.6285H52.209L46.0477 16.2158H42.5312L50.6162 31.724L50.3457 32.3253C49.8647 33.4073 49.0532 34.6696 47.4 34.6696C46.9493 34.6696 46.228 34.5492 45.8674 34.3689L45.687 37.0738C46.1379 37.1942 46.8892 37.3796 47.8508 37.3796C51.127 37.3796 52.3591 34.6696 53.291 32.8966L61.9769 16.2158Z" fill="#0082C9"/>
<path d="M28.166 16.2158V37.1942H31.1715V28.8089H33.4559C38.0241 28.8089 41.4503 27.1559 41.4503 22.437C41.4503 18.4401 38.9856 16.2158 33.2453 16.2158H28.166ZM31.1715 18.7705H32.7346C35.2592 18.7705 38.2946 19.1911 38.2946 22.4975C38.2946 25.8633 35.3191 26.224 33.0952 26.224H31.1715V18.7705Z" fill="#0082C9"/>
<path d="M20.4111 16.2158L11.3645 25.8633V16.2158H8.35938V37.1942H11.3645V26.5247L20.9224 37.1942H25.28L14.821 26.1039L24.4386 16.2158H20.4111Z" fill="#0082C9"/>
<path fill-rule="evenodd" clip-rule="evenodd" d="M88.692 14.8577C95.3971 14.8577 100.835 20.2958 100.835 27.0007C100.835 33.7057 95.3971 39.1438 88.692 39.1438C81.9869 39.1438 76.5488 33.7057 76.5488 27.0007C76.5488 20.2958 81.9869 14.8577 88.692 14.8577ZM88.6916 17.4778C93.9498 17.4778 98.2137 21.7421 98.2137 27.0005C98.2137 32.2584 93.9498 36.5227 88.6916 36.5227C83.4331 36.5227 79.1692 32.2584 79.1692 27.0005C79.1692 21.7421 83.4331 17.4778 88.6916 17.4778Z" fill="#EA556F"/>
<path fill-rule="evenodd" clip-rule="evenodd" d="M86.7553 25.6077C88.0718 25.6077 89.1391 26.675 89.1391 27.9915C89.1391 29.3083 88.0718 30.3757 86.7553 30.3757C85.4384 30.3757 84.3711 29.3083 84.3711 27.9915C84.3711 26.675 85.4384 25.6077 86.7553 25.6077Z" fill="#0082C9"/>
</svg>
