<svg width="211" height="72" viewBox="0 0 211 72" fill="none" xmlns="http://www.w3.org/2000/svg">
<path fill-rule="evenodd" clip-rule="evenodd" d="M4.4207 14.2051H94.2002C93.1868 15.2275 92.2425 16.3189 91.3765 17.4725H7.72928C5.37711 17.4725 3.45308 18.7878 3.45308 20.396V53.5269C3.45308 55.1352 5.37711 56.4505 7.72928 56.4505H92.4372C93.4141 57.6145 94.4734 58.7067 95.6069 59.7179H4.4207C1.98885 59.7179 0 58.182 0 56.3043V17.6187C0 15.7412 1.98885 14.2051 4.4207 14.2051ZM138.776 14.2051H206.579C209.011 14.2051 211 15.7412 211 17.6187V56.3043C211 58.182 209.011 59.7179 206.579 59.7179H137.369C138.502 58.7067 139.562 57.6145 140.539 56.4505H203.271C205.623 56.4505 207.546 55.1352 207.546 53.5269V20.396C207.546 18.7878 205.623 17.4725 203.271 17.4725H141.599C140.733 16.3189 139.789 15.2275 138.776 14.2051Z" fill="white"/>
<path fill-rule="evenodd" clip-rule="evenodd" d="M116.492 0.832031C129.159 0.832031 140.275 7.47844 146.547 17.4724H141.603C135.877 9.8462 126.76 4.91185 116.492 4.91185C106.223 4.91185 97.1057 9.8462 91.3799 17.4724H86.4351C92.7077 7.47844 103.824 0.832031 116.492 0.832031ZM145.668 56.4504C139.267 65.6971 128.586 71.7567 116.492 71.7567C104.396 71.7567 93.7155 65.6971 87.3147 56.4504H92.4406C98.1978 63.3125 106.836 67.6771 116.492 67.6771C126.148 67.6771 134.785 63.3125 140.542 56.4504H145.668Z" fill="white"/>
<path d="M168.092 21.6562C159.605 21.6562 154.829 27.7751 154.829 35.9854C154.829 44.1175 159.763 50.2424 168.171 50.2424C176.776 50.2424 181.395 44.2359 181.395 35.9854C181.395 27.6567 176.776 21.6562 168.092 21.6562ZM168.053 24.8932C174.448 24.8932 177.211 30.3805 177.211 36.0646C177.211 42.5779 173.5 47.1175 168.132 47.1175C162.763 47.1175 159.013 42.5382 159.013 35.9067C159.013 29.3146 162.724 24.8932 168.053 24.8932Z" fill="white"/>
<path d="M186.958 22.1309V49.6843H190.906V38.6708H193.906C199.906 38.6708 204.406 36.4997 204.406 30.3019C204.406 25.0522 201.169 22.1309 193.63 22.1309H186.958ZM190.906 25.4862H192.959C196.275 25.4862 200.262 26.0386 200.262 30.3813C200.262 34.802 196.354 35.2758 193.433 35.2758H190.906V25.4862Z" fill="white"/>
<path d="M140.818 25.0891C143.66 25.0891 145.437 25.9975 145.437 28.8397C145.437 32.5498 142.042 33.7738 139.2 33.7738H138.174V36.9713H139.397C143.424 36.9713 146.068 38.1555 146.068 41.8264C146.068 44.787 143.779 46.6818 140.266 46.6818C138.292 46.6818 135.45 45.8926 134.147 45.2607L133.752 48.9319C135.489 49.6032 138.252 50.0835 140.187 50.0835C145.239 50.0835 150.253 47.6292 150.253 41.9449C150.253 38.1158 147.963 35.8265 144.292 35.0765V34.9975C147.45 34.4054 149.463 31.9974 149.463 28.366C149.463 23.8261 145.832 21.7734 140.976 21.7734C139.239 21.7734 136.279 22.3263 134.739 22.8787L135.252 26.3528C136.831 25.6812 139.397 25.0891 140.818 25.0891Z" fill="white"/>
<path d="M85.0396 49.6843H88.9873V25.6046H100.79V22.1309H85.0396V49.6843Z" fill="white"/>
<path d="M81.4006 22.1309H77.0189L68.6897 38.434H68.5713L60.4789 22.1309H55.8604L66.4793 42.4997L66.1241 43.2894C65.4922 44.7105 64.4264 46.3684 62.255 46.3684C61.6632 46.3684 60.7158 46.2103 60.2421 45.9734L60.0052 49.5262C60.5973 49.6843 61.5842 49.9277 62.8472 49.9277C67.1502 49.9277 68.7684 46.3684 69.9924 44.0397L81.4006 22.1309Z" fill="white"/>
<path d="M36.9929 22.1309V49.6843H40.9404V38.6708H43.9407C49.9407 38.6708 54.4408 36.4997 54.4408 30.3019C54.4408 25.0522 51.2036 22.1309 43.6642 22.1309H36.9929ZM40.9404 25.4862H42.9933C46.3092 25.4862 50.296 26.0386 50.296 30.3813C50.296 34.802 46.3879 35.2758 43.467 35.2758H40.9404V25.4862Z" fill="white"/>
<path d="M26.8077 22.1309L14.9258 34.802V22.1309H10.9788V49.6843H14.9258V35.6707L27.4793 49.6843H33.2026L19.4656 35.1181L32.0976 22.1309H26.8077Z" fill="white"/>
<path fill-rule="evenodd" clip-rule="evenodd" d="M116.489 20.3457C125.295 20.3457 132.437 27.4882 132.437 36.2945C132.437 45.1011 125.295 52.2436 116.489 52.2436C107.682 52.2436 100.54 45.1011 100.54 36.2945C100.54 27.4882 107.682 20.3457 116.489 20.3457ZM116.488 23.7871C123.394 23.7871 128.995 29.3879 128.995 36.2943C128.995 43.2002 123.394 48.801 116.488 48.801C109.581 48.801 103.981 43.2002 103.981 36.2943C103.981 29.3879 109.581 23.7871 116.488 23.7871Z" fill="white"/>
<path fill-rule="evenodd" clip-rule="evenodd" d="M113.944 34.4668C115.673 34.4668 117.075 35.8686 117.075 37.5977C117.075 39.3273 115.673 40.7292 113.944 40.7292C112.214 40.7292 110.812 39.3273 110.812 37.5977C110.812 35.8686 112.214 34.4668 113.944 34.4668Z" fill="white"/>
</svg>
