<svg width="27" height="27" viewBox="0 0 27 27" fill="none" xmlns="http://www.w3.org/2000/svg">
<path fill-rule="evenodd" clip-rule="evenodd" d="M6.11138 13.3574C10.0469 11.6428 12.6712 10.5124 13.9843 9.96625C17.7334 8.40687 18.5124 8.13599 19.0202 8.12705C19.1318 8.12508 19.3815 8.15276 19.5433 8.284C19.6799 8.39483 19.7174 8.54453 19.7354 8.6496C19.7534 8.75467 19.7758 8.99403 19.758 9.18105C19.5548 11.3157 18.6757 16.496 18.2285 18.8869C18.0393 19.8985 17.6667 20.2377 17.3059 20.2709C16.5219 20.3431 15.9266 19.7528 15.1673 19.2551C13.9791 18.4762 13.3079 17.9914 12.1546 17.2313C10.8217 16.353 11.6857 15.8702 12.4453 15.0813C12.6441 14.8748 16.0983 11.733 16.1652 11.448C16.1735 11.4123 16.1813 11.2794 16.1024 11.2093C16.0234 11.1391 15.9069 11.1631 15.8229 11.1822C15.7037 11.2092 13.8056 12.4638 10.1285 14.946C9.5897 15.3159 9.10169 15.4962 8.66445 15.4867C8.18243 15.4763 7.25522 15.2142 6.56593 14.9901C5.72049 14.7153 5.04856 14.57 5.10707 14.1033C5.13754 13.8602 5.47232 13.6116 6.11138 13.3574Z" fill="white"/>
</svg>
