<svg width="34" height="34" viewBox="0 0 34 34" fill="none" xmlns="http://www.w3.org/2000/svg">
<circle cx="17" cy="17" r="17" fill="white"/>
<path fill-rule="evenodd" clip-rule="evenodd" d="M9.11089 16.3574C13.0464 14.6428 15.6707 13.5124 16.9838 12.9662C20.7329 11.4069 21.5119 11.136 22.0197 11.127C22.1314 11.1251 22.3811 11.1528 22.5428 11.284C22.6794 11.3948 22.717 11.5445 22.7349 11.6496C22.7529 11.7547 22.7753 11.994 22.7575 12.181C22.5543 14.3157 21.6753 19.496 21.228 21.8869C21.0388 22.8985 20.6662 23.2377 20.3054 23.2709C19.5215 23.3431 18.9261 22.7528 18.1668 22.2551C16.9787 21.4762 16.3074 20.9914 15.1541 20.2313C13.8212 19.353 14.6853 18.8702 15.4449 18.0813C15.6436 17.8748 19.0978 14.733 19.1647 14.448C19.1731 14.4123 19.1808 14.2794 19.1019 14.2093C19.0229 14.1391 18.9064 14.1631 18.8224 14.1822C18.7032 14.2092 16.8051 15.4638 13.128 17.946C12.5892 18.3159 12.1012 18.4962 11.664 18.4867C11.1819 18.4763 10.2547 18.2142 9.56544 17.9901C8.72001 17.7153 8.04807 17.57 8.10658 17.1033C8.13706 16.8602 8.47183 16.6116 9.11089 16.3574Z" fill="#009BF0"/>
</svg>
