<svg width="26" height="26" fill="none" xmlns="http://www.w3.org/2000/svg"><path d="M22.979 5.05a13.15 13.15 0 011.537 2.586l-11.685 8.73-4.884-3.103V9.53l4.884 3.103L22.979 5.05zM2.964 13c0-.168.004-.334.012-.5l-2.96-.146a13.116 13.116 0 00.959 5.623 12.976 12.976 0 002.782 4.214l2.1-2.127a9.972 9.972 0 01-2.143-3.24A10.079 10.079 0 012.964 13zm9.864-9.997c.165 0 .33.006.493.015l.148-3a12.646 12.646 0 00-5.55.971 12.783 12.783 0 00-4.162 2.82l2.1 2.127a9.82 9.82 0 013.196-2.171 9.716 9.716 0 013.775-.762zm0 19.994c-.165 0-.33 0-.493-.013l-.148 3a12.637 12.637 0 005.55-.97 12.776 12.776 0 004.157-2.822L19.8 20.065c-.914.93-2 1.668-3.197 2.171a9.719 9.719 0 01-3.774.761z" fill="#fff"/><path d="M18.389 4.747l2.494-1.863A12.665 12.665 0 0012.824 0v3.002a9.723 9.723 0 015.565 1.745zM25.655 13c.002-.78-.065-1.56-.201-2.33l-2.761 2.063v.268c0 1.396-.288 2.778-.848 4.054a9.965 9.965 0 01-2.402 3.355l1.992 2.23a12.962 12.962 0 003.121-4.365 13.113 13.113 0 001.1-5.274zm-12.827 9.997a9.733 9.733 0 01-4-.86 9.85 9.85 0 01-3.312-2.433l-2.2 2.017a12.8 12.8 0 004.308 3.164A12.65 12.65 0 0012.828 26v-3.003zM6.213 5.59l-1.99-2.23A12.96 12.96 0 001.1 7.724 13.114 13.114 0 000 12.999h2.964a10.075 10.075 0 01.848-4.054A9.968 9.968 0 016.213 5.59z" fill="#fff"/></svg>