<svg width="307" height="440" viewBox="0 0 307 440" fill="none" xmlns="http://www.w3.org/2000/svg">
<path d="M377.816 392.369C282.811 367.213 35.0526 415.941 179.641 277.103C214.867 229.431 183.911 163.289 111.003 163.905C91.7884 162.409 67.6103 167.027 52.6124 154.713C95.8981 116.981 158.825 92.3971 214.387 67.4177C233.975 56.2034 376.642 20.9773 309.872 0C241.02 1.80308 -86.4251 116.981 21.7093 192.666C47.9689 211.664 78.6052 209.334 110.202 215.71C167.418 228.464 62.3797 297.685 65.4754 328.337C48.7695 403.011 147.83 438.985 223.994 436.258C262.957 433.224 387.637 455.609 397.457 417.04C398.952 406.617 391.426 394.612 377.869 392.325L377.816 392.369Z" fill="#FFC93A"/>
</svg>
