<svg width="112" height="90" fill="none" xmlns="http://www.w3.org/2000/svg"><path d="M10.715 37.254C27.138 26.302 46.2 15.614 64.075 11.17c21.73-5.402 6.074 10.061 0 16.33C43.5 35.5-3.26 70.96 13.751 68.373c17.088-2.6 35.826-15.651 51.9-23.015 11.59-5.31 41.968-27.288 35.44-12.466-7.915 14.411-22.818 21.59-33.747 30.203C52.791 74.564 58.88 70.127 42.5 79.5" stroke="#009BF0" stroke-width="20" stroke-linecap="round"/><path d="M47.531 35.223c.581-1.582 1.729-2.916 3.24-3.766a7.698 7.698 0 015.012-.877 7.5 7.5 0 014.42 2.426 6.923 6.923 0 011.744 4.585c0 4.735-7.418 7.102-7.418 7.102m.198 9.47h.024M44.59 61.265a23.143 23.143 0 0015.308 1.77c5.16-1.175 9.712-4.076 12.835-8.18 3.123-4.105 4.613-9.142 4.2-14.205-.412-5.063-2.7-9.818-6.45-13.41-3.75-3.59-8.717-5.78-14.005-6.175-5.288-.395-10.55 1.03-14.836 4.021-4.287 2.991-7.317 7.35-8.545 12.29a20.492 20.492 0 001.85 14.656L30 66l14.589-4.735z" stroke="#fff" stroke-width="2" stroke-linecap="round" stroke-linejoin="round"/></svg>