<svg width="112" height="90" fill="none" xmlns="http://www.w3.org/2000/svg"><path d="M10.617 37.209c16.424-10.952 35.485-21.64 53.36-26.084 21.731-5.402 6.074 10.061 0 16.33-20.575 8-67.335 43.46-50.322 40.872 17.087-2.6 35.825-15.651 51.9-23.015 11.589-5.31 41.967-27.288 35.439-12.466-7.915 14.412-22.817 21.59-33.746 30.203-14.555 11.47-8.467 7.033-24.846 16.407" stroke="#9CC624" stroke-width="20" stroke-linecap="round"/><path d="M46.748 42.107h.024m14.48 0h.024m-12.11 9.825c1.208.737 2.9 1.228 4.834 1.228 1.934 0 3.626-.491 4.835-1.228M70.92 28.106a22.271 22.271 0 014.352 9.58 4.86 4.86 0 011.989 1.812A4.97 4.97 0 0178 42.107a4.97 4.97 0 01-.738 2.609 4.86 4.86 0 01-1.99 1.812 22.163 22.163 0 01-7.595 12.558A21.543 21.543 0 0154 64a21.543 21.543 0 01-13.677-4.914 22.163 22.163 0 01-7.596-12.558 4.86 4.86 0 01-1.989-1.812 4.97 4.97 0 01-.738-2.61c0-.922.256-1.827.738-2.608a4.86 4.86 0 011.99-1.813 22.17 22.17 0 017.54-12.688A21.545 21.545 0 0154 20c4.835 0 8.46 2.702 8.46 6.14 0 3.44-2.175 6.141-4.834 6.141-1.934 0-3.626-.982-3.626-2.456" stroke="#fff" stroke-width="2" stroke-linecap="round" stroke-linejoin="round"/></svg>