<svg width="112" height="90" fill="none" xmlns="http://www.w3.org/2000/svg"><path d="M10.617 37.209c16.424-10.952 35.485-21.64 53.36-26.084 21.731-5.402 6.074 10.061 0 16.33-20.575 8-67.335 43.46-50.322 40.872 17.087-2.6 35.825-15.651 51.9-23.015 11.589-5.31 41.967-27.288 35.439-12.466-7.915 14.412-22.817 21.59-33.746 30.203-14.555 11.47-8.467 7.033-24.846 16.407" stroke="#FF7223" stroke-width="20" stroke-linecap="round"/><path d="M67 21.167h4.5c1.194 0 2.338.483 3.182 1.343A4.627 4.627 0 0176 25.75v32.084a4.627 4.627 0 01-1.318 3.24 4.459 4.459 0 01-3.182 1.343h-27a4.459 4.459 0 01-3.182-1.342A4.627 4.627 0 0140 57.834V25.751c0-1.216.474-2.382 1.318-3.241a4.459 4.459 0 013.182-1.343H49m2.25 22.917l4.5 4.583 9-9.166m-13.5-22.917h13.5c1.243 0 2.25 1.026 2.25 2.292v4.583c0 1.266-1.007 2.292-2.25 2.292h-13.5c-1.243 0-2.25-1.026-2.25-2.292v-4.583c0-1.266 1.007-2.292 2.25-2.292z" stroke="#fff" stroke-width="2" stroke-linecap="round" stroke-linejoin="round"/></svg>