<svg width="112" height="90" fill="none" xmlns="http://www.w3.org/2000/svg"><path d="M10.617 37.209c16.424-10.952 35.485-21.64 53.36-26.084 21.731-5.402 6.074 10.061 0 16.33-20.575 8-67.335 43.46-50.322 40.872 17.087-2.6 35.825-15.651 51.9-23.015 11.589-5.31 41.967-27.288 35.439-12.466-7.915 14.412-22.817 21.59-33.746 30.203-14.555 11.47-8.467 7.033-24.846 16.407" stroke="#FF4174" stroke-width="20" stroke-linecap="round"/><path d="M43.629 39.943h8.628m-4.314-4.314v8.628m15.1-2.157h.021m6.45-4.314h.022M68.047 27H45.095a8.629 8.629 0 00-8.58 7.744c-.014.112-.022.218-.037.328C36.303 36.526 35 47.398 35 50.729a6.472 6.472 0 006.471 6.471c2.158 0 3.236-1.079 4.315-2.157l3.05-3.05a4.314 4.314 0 013.05-1.264h9.37a4.31 4.31 0 013.05 1.264l3.051 3.05c1.079 1.078 2.157 2.157 4.314 2.157a6.471 6.471 0 006.472-6.471c0-3.333-1.303-14.203-1.478-15.657-.015-.108-.024-.216-.037-.326A8.628 8.628 0 0068.049 27z" stroke="#fff" stroke-width="2" stroke-linecap="round" stroke-linejoin="round"/></svg>