<svg width="112" height="90" fill="none" xmlns="http://www.w3.org/2000/svg"><path d="M10.617 37.209c16.424-10.952 35.485-21.64 53.36-26.084 21.731-5.402 6.074 10.061 0 16.33-20.575 8-67.335 43.46-50.322 40.872 17.087-2.6 35.825-15.651 51.9-23.015 11.589-5.31 41.967-27.288 35.439-12.466-7.915 14.412-22.817 21.59-33.746 30.203-14.555 11.47-8.467 7.033-24.846 16.407" stroke="#9155E8" stroke-width="20" stroke-linecap="round"/><path d="M75.436 32.133v-3.036a4.048 4.048 0 00-4.049-4.049H43.048A4.049 4.049 0 0039 29.097v28.338a4.048 4.048 0 004.048 4.049h7.085M65.314 21v8.097M49.121 21v8.097M39 37.193h10.121m19.23 15.182l-3.037-2.429V45.29m12.146 4.05c0 6.707-5.438 12.145-12.145 12.145-6.708 0-12.146-5.438-12.146-12.145 0-6.708 5.438-12.145 12.145-12.145 6.708 0 12.146 5.437 12.146 12.145z" stroke="#fff" stroke-width="2" stroke-linecap="round" stroke-linejoin="round"/></svg>